<?xml version="1.0" encoding="UTF-8" standalone="no"?>
<svg
   width="300"
   height="400"
   viewBox="0 0 600 800"
   version="1.1"
   id="svg1"
   xmlns:x="adobe:ns:meta/"
   xmlns="http://www.w3.org/2000/svg"
   xmlns:svg="http://www.w3.org/2000/svg"
   xmlns:rdf="http://www.w3.org/1999/02/22-rdf-syntax-ns#">
  <metadata
     id="metadata1">
<?xpacket begin="﻿" id="W5M0MpCehiHzreSzNTczkc9d"?>    <x:xmpmeta
       x:xmptk="Adobe XMP Core 5.6-c142 79.160924, 2017/07/13-01:06:39        ">
      <rdf:RDF>
        <rdf:Description
           rdf:about="" />
      </rdf:RDF>
    </x:xmpmeta>
<?xpacket end="w"?>  </metadata>
  <defs
     id="defs1">
    <style
       id="style1">&#10;      .cls-1 {&#10;        fill: #ff6a00;&#10;        fill-rule: evenodd;&#10;      }&#10;    </style>
  </defs>
  <path
     class="cls-1"
     d="m 575.644,585.38537 q -5.181,-1.784 -10.363,-3.261 c -0.575,0.739 -1.151,1.112 -2.878,0.644 -2.3,-0.616 -3.454,-1.263 -5.182,-1.864 a 26.238,26.238 0 0 0 -8.059,-2.673 c -17.272,-3.188 -21.877,6.058 -21.877,14.732 v 21.83 c 0,20.545 10.362,32.65 19.574,43.1 7.484,8.787 13.241,19.9 13.241,22.956 0,2.543 -2.3,3.865 -8.06,2.615 -6.908,-1.431 -8.06,-3.507 -8.06,-6.783 v -13.17 q -7.2,-1.234 -14.393,-1.951 v 67.111 q 5.183,0.519 10.363,1.3 c 0.576,-0.814 1.152,-1.271 2.879,-0.987 a 34.72,34.72 0 0 1 5.181,1.469 34.109,34.109 0 0 0 8.06,2.624 c 14.969,3.684 19.574,-3.234 19.574,-12.2 v -21.837 c 0,-14.043 -5.181,-26.069 -13.817,-37.228 -10.363,-13.924 -17.271,-23.608 -17.271,-30.5 0,-3.209 1.151,-5.137 9.211,-3.4 6.333,1.443 8.06,3.978 8.06,7.2 v 13.17 q 6.909,1.839 13.817,4.214 z m -65.219,41.914 c 0,-2.673 1.727,-4.4 9.787,-4.539 v -47.087 c 0,-0.722 -1.152,-1.148 -2.3,-1.2 a 255.694,255.694 0 0 0 -56.995,4.159 c -1.727,0.311 -2.879,0.893 -2.879,1.614 v 66.029 q 6.909,-1.309 13.817,-2.295 v -13.711 c 0,-3.215 3.455,-5.279 12.666,-6.195 8.06,-0.734 10.938,0.666 10.938,3.887 v 46.906 c 0,2.735 -1.727,4.338 -9.787,5.568 v 47.085 c 0,0.723 1.152,0.976 2.879,0.839 a 235.694,235.694 0 0 1 29.361,-0.541 c 1.151,0.052 2.3,-0.244 2.3,-0.965 v -47.086 c -8.06,-0.944 -9.787,-2.463 -9.787,-5.2 z m -108.691,108.188 c 0,7.427 10.362,8.607 24.755,4.523 14.393,-4.084 24.756,-10.99 24.756,-18.407 v -128.81 c 0,-7.375 -10.363,-10.2 -24.756,-6.127 -14.393,4.073 -24.755,12.645 -24.755,20.011 z m 34.542,-53.5 c 0,3.27 -1.151,6.907 -9.787,9.312 -8.06,2.306 -9.787,-0.521 -9.787,-3.787 v -42.574 c 0,-3.229 1.727,-7.257 9.787,-9.563 8.636,-2.4 9.787,0.814 9.787,4.038 v 42.576 0 z m -54.975,-79.125 c 0,-0.722 -1.727,-0.428 -3.454,0.237 -9.595,3.691 -19.19,7.6 -28.785,11.644 -1.728,0.728 -2.879,1.578 -2.879,2.3 v 47.086 c 8.06,-2.868 9.787,-1.933 9.787,0.766 v 50.875 c 0,0.9 -2.3,2.216 -4.606,3.182 -1.727,0.723 -4.03,1.336 -4.03,0.434 v -17.68 q -6.908,2.923 -13.817,5.925 v 66.029 c 0,0.722 1.152,0.582 2.879,-0.164 18.231,-7.875 36.461,-15.4 54.692,-22 1.152,-0.416 2.3,-1.189 2.3,-1.91 v -66.029 q -6.909,2.471 -13.817,5.114 v 17.679 c 0,0.9 -2.3,2.143 -4.03,2.815 -2.3,0.894 -4.03,1.217 -4.03,0.314 v -50.874 c 0,-2.692 1.152,-4.82 9.787,-8.657 v -47.086 0 z m 184.556,-135.919 c 0,-2.664 1.727,-3.947 9.787,-1.775 v -47.086 c 0,-0.722 -1.151,-1.48 -2.3,-1.86 q -6.333,-2.1 -12.665,-3.739 c -33.391,-7.817 -44.33,-1.339 -44.33,8.333 v 53.039 c 0,4 4.03,7.643 12.09,10.182 -8.06,0.888 -12.09,4.638 -12.09,8.761 v 51.776 c 0,10.895 10.939,13.437 44.33,21.253 q 6.333,1.647 12.665,3.74 c 1.152,0.38 2.3,0.416 2.3,-0.3 v -47.091 c -8.06,-3.255 -9.787,-5.219 -9.787,-7.967 z m -14.968,42.656 c 0,3.291 -1.152,4.873 -9.787,3.449 -6.909,-1.069 -10.939,-3.386 -10.939,-6.651 v -13.71 c 0,-3.22 5.182,-5.341 13.817,-3.88 q 3.455,0.592 6.909,1.309 z m 0,-24.9 q -3.454,-0.717 -6.909,-1.309 c -8.635,-1.461 -13.817,-4.392 -13.817,-7.666 v -14.969 c 0,-3.214 2.879,-4.854 10.939,-3.631 8.635,1.424 9.787,3.63 9.787,6.833 v 20.747 0 z m -52.67,-25.615 c 0,-2.675 1.727,-4.486 9.787,-5.063 v -47.081 c 0,-0.722 -1.152,-1.085 -2.3,-1.074 a 252.518,252.518 0 0 0 -29.361,2.017 c -1.727,0.217 -2.879,0.738 -2.879,1.459 v 47.086 c 8.06,-0.519 9.787,1.035 9.787,3.714 v 21.469 q -4.029,0.4 -8.06,0.926 c -7.484,0.978 -12.665,-0.582 -12.665,-3.841 v -59.714 c 0,-5.39 -4.606,-8.3 -13.817,-6.3 q -3.743,0.82 -7.485,1.726 c -1.727,0.411 -5.181,1.648 -5.181,2.374 v 47.987 c 10.939,-2.387 12.666,-0.992 12.666,1.674 v 14.076 c 0,3.977 4.03,6.659 10.362,7.279 -6.332,2.808 -10.362,7.523 -10.362,11.663 v 51.777 c 0,10.727 10.938,11.118 44.329,8.419 q 6.333,-0.389 12.666,-0.446 c 1.151,-0.011 2.3,-0.37 2.3,-1.091 v -47.086 c -8.06,-0.506 -9.787,-1.942 -9.787,-4.679 v -47.266 0 z m -14.969,47.418 c 0,3.279 -1.151,5.26 -9.787,6.388 -6.908,0.952 -10.938,-0.27 -10.938,-3.53 v -13.706 c 0,-3.236 5.181,-6.727 12.665,-7.7 q 4.03,-0.525 8.06,-0.927 v 19.484 0 z m -103.509,68.563 c 0,7.423 10.363,8.207 24.756,3.37 14.393,-4.837 24.755,-12.436 24.755,-19.848 v -128.81 c 0,-7.38 -10.362,-9.517 -24.755,-4.687 -14.393,4.83 -24.756,13.8 -24.756,21.165 z m 34.543,-55.187 c 0,3.267 -1.151,6.984 -9.787,9.848 -8.06,2.723 -9.787,-0.035 -9.787,-3.3 v -42.573 c 0,-3.232 1.727,-7.33 9.787,-10.053 8.636,-2.864 9.787,0.274 9.787,3.5 v 42.576 0 z m -54.974,-76.7 c 0,-0.722 -1.727,-0.374 -3.454,0.342 -9.6,3.975 -19.19,8.105 -28.786,12.3 -1.727,0.756 -2.878,1.623 -2.878,2.344 v 47.086 c 8.06,-2.992 9.787,-2.1 9.787,0.6 v 50.874 c 0,0.9 -2.3,2.261 -4.606,3.267 -1.727,0.753 -4.03,1.4 -4.03,0.5 v -17.68 q -6.907,3.029 -13.817,6.092 v 66.029 c 0,0.722 1.152,0.572 2.879,-0.192 18.231,-8.062 36.461,-16.008 54.692,-23.259 1.152,-0.458 2.3,-1.273 2.3,-2 v -66.021 q -6.909,2.724 -13.817,5.579 v 17.679 c 0,0.9 -2.3,2.213 -4.03,2.934 -2.3,0.96 -4.03,1.328 -4.03,0.426 v -50.879 c 0,-2.7 1.151,-4.839 9.787,-8.941 v -47.081 0 z m -80.884,112.953 v 21.468 a 5.736,5.736 0 0 1 -1.727,4 29.386,29.386 0 0 1 -8.06,5.116 v 47.084 c 0,0.722 1.152,0.587 2.879,-0.16 9.787,-4.234 19.574,-8.566 29.361,-12.906 1.151,-0.51 2.3,-1.382 2.3,-2.1 v -47.086 c -8.06,3.033 -9.787,2.171 -9.787,-0.534 v -47.266 a 6.49,6.49 0 0 1 1.727,-4.012 43.045,43.045 0 0 1 8.06,-5.2 v -47.082 c 0,-0.722 -1.152,-0.572 -2.3,-0.061 -9.787,4.34 -19.574,8.671 -29.361,12.905 -1.727,0.747 -2.879,1.6 -2.879,2.325 v 47.086 c 8.06,-2.937 9.787,-2.086 9.787,0.625 v 21.107 q -11.514,5.029 -23.028,9.874 v -21.107 a 6.344,6.344 0 0 1 1.727,-3.972 42.793,42.793 0 0 1 8.06,-5.044 v -47.086 c 0,-0.722 -1.151,-0.589 -2.879,0.146 -9.595,4.082 -19.19,8.043 -28.785,11.8 -1.151,0.451 -2.879,1.481 -2.879,2.2 v 47.086 c 8.06,-2.6 9.787,-1.7 9.787,1.012 v 47.267 a 5.522,5.522 0 0 1 -1.727,3.938 27.485,27.485 0 0 1 -8.06,4.791 v 47.086 c 0,0.722 1.728,0.414 2.879,-0.038 9.595,-3.755 19.19,-7.716 28.785,-11.8 1.728,-0.735 2.879,-1.589 2.879,-2.31 v -47.084 c -8.06,2.9 -9.787,1.974 -9.787,-0.726 v -21.468 q 11.514,-4.822 23.028,-9.874 z m -56.13,49.39 c -8.06,2.45 -9.787,1.39 -9.787,-1.3 v -47.27 c 0,-2.719 1.727,-4.906 9.787,-8.438 v -47.086 c 0,-0.722 -1.151,-0.653 -2.3,-0.228 a 493.139,493.139 0 0 1 -52.395,16.4 c -2.3,0.566 -2.879,1.058 -2.879,1.781 v 65.489 q 6.909,-1.649 13.817,-3.57 v -13.17 c 0,-3.088 1.152,-4.951 9.787,-7.529 8.06,-2.466 9.212,-1.1 9.212,2.164 v 20.386 q -6.621,2.147 -13.242,4.086 v 4.69 q 6.621,-1.935 13.242,-4.085 v 20.566 c 0,3.23 -1.152,5.653 -9.212,8.119 -8.635,2.578 -9.787,1.193 -9.787,-1.852 v -13.17 q -6.907,1.917 -13.817,3.57 v 65.487 c 0,0.72 0.576,0.95 2.879,0.384 a 493.37,493.37 0 0 0 52.389,-16.4 c 1.152,-0.425 2.3,-1.216 2.3,-1.937 v -47.087 z m -75.7,-30.362 c 0,-2.729 1.728,-4.578 9.787,-6.8 v -47.091 c 0,-0.721 -1.151,-0.836 -2.3,-0.6 -9.787,2.016 -19.574,3.575 -29.362,4.588 -1.727,0.178 -2.878,0.642 -2.878,1.364 v 47.086 c 8.06,-0.245 9.787,1.051 9.787,3.784 v 21.469 q -4.031,0.52 -8.06,0.921 c -7.484,0.739 -12.666,-1.6 -12.666,-4.832 v -59.713 c 0,-5.444 -4.605,-8.689 -13.817,-8.745 q -3.742,-0.038 -7.484,-0.2 c -1.727,-0.064 -5.181,0.082 -5.181,0.8 v 47.988 c 10.939,1 12.666,2.4 12.666,5.173 v 14.072 c 0,3.959 4.03,7.66 10.363,9.25 -6.333,1.837 -10.363,5.533 -10.363,9.693 v 51.776 c 0,9.859 10.939,16.219 44.33,11.219 q 6.333,-1.038 12.666,-2.347 c 1.151,-0.237 2.3,-0.843 2.3,-1.565 v -47.087 c -8.059,1.145 -9.787,-0.254 -9.787,-2.937 v -47.266 z m -14.968,48.7 c 0,3.214 -1.151,5.467 -9.787,6.318 -6.909,0.629 -10.939,-1.222 -10.939,-4.456 v -13.714 c 0,-3.258 5.182,-5.975 12.666,-6.714 q 4.031,-0.4 8.06,-0.921 v 19.484 0 z m -54.29,-98.345 q -5.181,-0.52 -10.363,-1.3 c -0.576,0.814 -1.152,1.271 -2.879,0.986 a 34.845,34.845 0 0 1 -5.181,-1.471 34.138,34.138 0 0 0 -8.06,-2.627 c -17.271,-4.3 -21.877,2.367 -21.877,11.386 v 21.829 c 0,20.6 10.363,35.471 19.574,46.329 7.484,9.253 13.241,19.761 13.241,22.84 0,2.509 -2.3,4.154 -8.06,2.907 -6.909,-1.564 -8.06,-3.962 -8.06,-7.18 v -13.17 q -7.2,-1.9 -14.393,-4.372 v 67.111 q 5.181,1.787 10.363,3.265 c 0.576,-0.739 1.151,-1.112 2.879,-0.643 2.3,0.617 3.454,1.265 5.181,1.866 a 26.273,26.273 0 0 0 8.06,2.677 c 14.969,2.808 19.574,-6.225 19.574,-14.943 v -21.834 c 0,-14.1 -5.181,-24.6 -13.817,-34.873 -10.363,-12.949 -17.271,-23.575 -17.271,-30.4 0,-3.288 1.151,-4.824 9.211,-3.062 6.333,1.3 8.06,3.492 8.06,6.762 v 13.17 q 6.909,1.167 13.817,1.858 v -67.111 z m -45.98,-301.9 q 5.181,1.783 10.363,3.261 c 0.576,-0.739 1.151,-1.112 2.879,-0.644 2.3,0.616 3.454,1.263 5.181,1.864 a 26.251,26.251 0 0 0 8.06,2.673 c 17.271,3.188 21.877,-6.058 21.877,-14.732 v -21.83 c 0,-20.545 -10.363,-32.65 -19.574,-43.095 -7.484,-8.787 -13.241,-19.9 -13.241,-22.956 0,-2.543 2.3,-3.865 8.06,-2.615 6.908,1.431 8.06,3.507 8.06,6.783 v 13.17 q 7.2,1.235 14.393,1.951 V 80.332367 q -5.181,-0.519 -10.363,-1.3 c -0.576,0.814 -1.151,1.271 -2.879,0.987 a 34.88,34.88 0 0 1 -5.181,-1.469 34.075,34.075 0 0 0 -8.06,-2.624 c -14.968,-3.684 -19.574,3.234 -19.574,12.2 v 21.830003 c 0,14.043 5.181,26.069 13.817,37.228 10.363,13.924 17.271,23.608 17.271,30.5 0,3.209 -1.151,5.137 -9.211,3.4 -6.333,-1.443 -8.06,-3.978 -8.06,-7.2 v -13.17 q -6.908,-1.839 -13.817,-4.214 v 67.111 0 z m 65.219,-41.915 c 0,2.673 -1.727,4.4 -9.787,4.539 v 47.086 c 0,0.722 1.151,1.148 2.3,1.2 a 255.694,255.694 0 0 0 56.995,-4.159 c 1.727,-0.311 2.879,-0.893 2.879,-1.614 v -66.028 q -6.909,1.31 -13.817,2.3 v 13.706 c 0,3.215 -3.455,5.279 -12.666,6.2 -8.06,0.734 -10.938,-0.666 -10.938,-3.887 v -46.911 c 0,-2.735 1.727,-4.338 9.787,-5.568 V 81.478367 c 0,-0.722 -1.152,-0.975 -2.879,-0.838 a 235.693,235.693 0 0 1 -29.361,0.54 c -1.151,-0.052 -2.3,0.244 -2.3,0.966 v 47.086003 c 8.06,0.944 9.787,2.463 9.787,5.2 z M 205.268,73.511367 c 0,-7.427 -10.362,-8.608 -24.755,-4.524 -14.393,4.084 -24.756,10.991 -24.756,18.412 V 216.20537 c 0,7.375 10.363,10.2 24.756,6.127 14.393,-4.073 24.755,-12.645 24.755,-20.011 z m -34.542,53.500003 c 0,-3.27 1.151,-6.907 9.787,-9.312 8.06,-2.306 9.787,0.521 9.787,3.787 v 42.576 c 0,3.229 -1.727,7.257 -9.787,9.563 -8.636,2.405 -9.787,-0.814 -9.787,-4.038 v -42.578 0 z m 54.975,79.125 c 0,0.722 1.727,0.428 3.454,-0.237 9.595,-3.691 19.19,-7.6 28.785,-11.644 1.728,-0.728 2.879,-1.578 2.879,-2.3 v -47.086 c -8.06,2.868 -9.787,1.933 -9.787,-0.766 V 93.228367 c 0,-0.9 2.3,-2.216 4.606,-3.182 1.727,-0.723 4.03,-1.336 4.03,-0.434 v 17.680003 q 6.908,-2.924 13.817,-5.925 V 35.338367 c 0,-0.722 -1.152,-0.582 -2.879,0.164 -18.231,7.875 -36.461,15.4 -54.692,22 -1.152,0.417 -2.3,1.189 -2.3,1.911 v 66.029003 q 6.909,-2.47 13.817,-5.114 v -17.68 c 0,-0.9 2.3,-2.143 4.03,-2.815 2.3,-0.894003 4.03,-1.216003 4.03,-0.314003 v 50.874003 c 0,2.692 -1.152,4.82 -9.787,8.657 v 47.086 0 z m -184.556,135.919 c 0,2.664 -1.727,3.947 -9.787,1.775 v 47.086 c 0,0.722 1.151,1.48 2.3,1.86 q 6.333,2.1 12.666,3.739 c 33.391,7.817 44.33,1.339 44.33,-8.333 v -53.039 c 0,-4 -4.03,-7.643 -12.09,-10.182 8.06,-0.888 12.09,-4.638 12.09,-8.761 v -51.776 c 0,-10.9 -10.939,-13.437 -44.33,-21.253 q -6.333,-1.647 -12.666,-3.74 c -1.152,-0.38 -2.3,-0.416 -2.3,0.305 v 47.086 c 8.06,3.255 9.787,5.219 9.787,7.967 z m 14.968,-42.656 c 0,-3.291 1.151,-4.873 9.787,-3.449 6.909,1.069 10.938,3.386 10.938,6.651 v 13.711 c 0,3.22 -5.181,5.341 -13.817,3.88 q -3.454,-0.592 -6.909,-1.309 v -19.484 0 z m 0,24.9 q 3.454,0.717 6.909,1.309 c 8.636,1.461 13.817,4.392 13.817,7.666 v 14.974 c 0,3.214 -2.879,4.854 -10.938,3.631 -8.636,-1.424 -9.787,-3.63 -9.787,-6.833 v -20.747 0 z m 52.67,25.615 c 0,2.675 -1.727,4.486 -9.787,5.063 v 47.086 c 0,0.722 1.151,1.085 2.3,1.074 a 252.517,252.517 0 0 0 29.361,-2.017 c 1.727,-0.217 2.879,-0.738 2.879,-1.459 v -47.091 c -8.06,0.519 -9.787,-1.035 -9.787,-3.714 v -21.469 q 4.029,-0.4 8.06,-0.926 c 7.484,-0.978 12.665,0.582 12.665,3.841 v 59.714 c 0,5.39 4.606,8.3 13.817,6.3 q 3.743,-0.82 7.485,-1.726 c 1.727,-0.411 5.181,-1.648 5.181,-2.374 v -47.991 c -10.939,2.387 -12.666,0.992 -12.666,-1.674 v -14.072 c 0,-3.977 -4.03,-6.659 -10.362,-7.279 6.332,-2.808 10.362,-7.523 10.362,-11.663 v -51.777 c 0,-10.727 -10.938,-11.118 -44.329,-8.419 q -6.333,0.388 -12.666,0.446 c -1.151,0.011 -2.3,0.37 -2.3,1.091 v 47.086 c 8.06,0.506 9.787,1.942 9.787,4.679 v 47.266 0 z m 14.969,-47.418 c 0,-3.279 1.151,-5.26 9.787,-6.388 6.908,-0.952 10.938,0.27 10.938,3.53 v 13.711 c 0,3.236 -5.181,6.727 -12.665,7.7 q -4.031,0.525 -8.06,0.927 v -19.485 0 z m 103.509,-68.563 c 0,-7.423 -10.363,-8.207 -24.756,-3.37 -14.393,4.837 -24.755,12.436 -24.755,19.848 v 128.81 c 0,7.38 10.362,9.517 24.755,4.687 14.393,-4.83 24.756,-13.8 24.756,-21.165 z m -34.543,55.187 c 0,-3.267 1.151,-6.984 9.787,-9.848 8.06,-2.723 9.787,0.035 9.787,3.3 v 42.576 c 0,3.232 -1.727,7.33 -9.787,10.053 -8.636,2.864 -9.787,-0.274 -9.787,-3.5 z m 54.974,76.7 c 0,0.722 1.727,0.374 3.454,-0.342 9.595,-3.975 19.19,-8.105 28.786,-12.3 1.727,-0.756 2.878,-1.623 2.878,-2.344 v -47.088 c -8.06,2.992 -9.787,2.1 -9.787,-0.6 v -50.874 c 0,-0.9 2.3,-2.261 4.606,-3.267 1.727,-0.753 4.03,-1.4 4.03,-0.5 v 17.68 q 6.907,-3.029 13.817,-6.092 v -66.029 c 0,-0.722 -1.152,-0.572 -2.879,0.192 -18.231,8.062 -36.461,16.008 -54.692,23.259 -1.152,0.458 -2.3,1.273 -2.3,2 v 66.028 q 6.909,-2.724 13.817,-5.579 v -17.684 c 0,-0.9 2.3,-2.213 4.03,-2.934 2.3,-0.96 4.03,-1.328 4.03,-0.426 v 50.879 c 0,2.7 -1.151,4.839 -9.787,8.941 v 47.085 0 z m 80.884,-112.954 v -21.467 a 5.736,5.736 0 0 1 1.727,-4 29.386,29.386 0 0 1 8.06,-5.116 v -47.084 c 0,-0.722 -1.152,-0.587 -2.879,0.16 -9.787,4.234 -19.574,8.566 -29.361,12.906 -1.151,0.51 -2.3,1.382 -2.3,2.1 v 47.086 c 8.06,-3.033 9.787,-2.171 9.787,0.534 v 47.266 a 6.49,6.49 0 0 1 -1.727,4.012 43.045,43.045 0 0 1 -8.06,5.2 v 47.086 c 0,0.722 1.152,0.572 2.3,0.061 9.787,-4.34 19.574,-8.671 29.361,-12.905 1.727,-0.747 2.879,-1.6 2.879,-2.325 v -47.09 c -8.06,2.937 -9.787,2.086 -9.787,-0.625 v -21.107 q 11.514,-5.03 23.028,-9.874 v 21.107 a 6.344,6.344 0 0 1 -1.727,3.972 42.793,42.793 0 0 1 -8.06,5.044 v 47.086 c 0,0.722 1.151,0.589 2.879,-0.146 9.6,-4.082 19.19,-8.043 28.785,-11.8 1.151,-0.451 2.879,-1.481 2.879,-2.2 v -47.087 c -8.06,2.595 -9.787,1.7 -9.787,-1.012 v -47.267 a 5.522,5.522 0 0 1 1.727,-3.938 27.485,27.485 0 0 1 8.06,-4.791 v -47.086 c 0,-0.722 -1.728,-0.414 -2.879,0.038 -9.6,3.755 -19.19,7.716 -28.785,11.8 -1.728,0.735 -2.879,1.589 -2.879,2.31 v 47.085 c 8.06,-2.9 9.787,-1.974 9.787,0.726 v 21.468 q -11.514,4.823 -23.028,9.874 v 0 z m 56.13,-49.39 c 8.06,-2.45 9.787,-1.39 9.787,1.3 v 47.267 c 0,2.719 -1.727,4.906 -9.787,8.438 v 47.086 c 0,0.722 1.151,0.653 2.3,0.228 a 493.139,493.139 0 0 1 52.395,-16.396 c 2.3,-0.566 2.879,-1.058 2.879,-1.781 v -65.489 q -6.909,1.649 -13.817,3.57 v 13.17 c 0,3.088 -1.152,4.951 -9.787,7.529 -8.06,2.466 -9.212,1.1 -9.212,-2.164 v -20.386 q 6.621,-2.146 13.242,-4.086 v -4.69 q -6.621,1.935 -13.242,4.085 v -20.566 c 0,-3.23 1.152,-5.653 9.212,-8.119 8.635,-2.578 9.787,-1.193 9.787,1.852 v 13.175 q 6.908,-1.917 13.817,-3.57 v -65.492 c 0,-0.72 -0.576,-0.95 -2.879,-0.384 a 493.37,493.37 0 0 0 -52.389,16.4 c -1.152,0.425 -2.3,1.216 -2.3,1.937 v 47.086 z m 75.7,30.362 c 0,2.729 -1.728,4.578 -9.787,6.805 v 47.086 c 0,0.721 1.151,0.836 2.3,0.6 9.787,-2.016 19.574,-3.575 29.362,-4.588 1.727,-0.178 2.878,-0.642 2.878,-1.364 v -47.086 c -8.06,0.245 -9.787,-1.051 -9.787,-3.784 v -21.469 q 4.031,-0.52 8.06,-0.921 c 7.484,-0.739 12.666,1.6 12.666,4.832 v 59.714 c 0,5.444 4.605,8.689 13.817,8.745 q 3.741,0.038 7.484,0.2 c 1.727,0.064 5.181,-0.082 5.181,-0.8 v -47.987 c -10.938,-1 -12.665,-2.405 -12.665,-5.173 v -14.072 c 0,-3.959 -4.03,-7.66 -10.363,-9.25 6.333,-1.837 10.363,-5.533 10.363,-9.693 v -51.776 c 0,-9.859 -10.939,-16.219 -44.33,-11.219 q -6.333,1.038 -12.666,2.347 c -1.151,0.237 -2.3,0.843 -2.3,1.565 v 47.086 c 8.059,-1.145 9.787,0.254 9.787,2.937 v 47.266 z m 14.968,-48.7 c 0,-3.214 1.151,-5.467 9.787,-6.318 6.909,-0.629 10.939,1.222 10.939,4.456 v 13.711 c 0,3.258 -5.182,5.975 -12.666,6.714 q -4.031,0.4 -8.06,0.921 v -19.48 0 z m 54.286,98.342 q 5.181,0.52 10.362,1.305 c 0.576,-0.814 1.152,-1.271 2.879,-0.986 a 34.824,34.824 0 0 1 5.181,1.471 34.146,34.146 0 0 0 8.06,2.627 c 17.272,4.3 21.877,-2.367 21.877,-11.386 v -21.825 c 0,-20.6 -10.363,-35.471 -19.574,-46.329 -7.484,-9.253 -13.241,-19.761 -13.241,-22.84 0,-2.509 2.3,-4.154 8.06,-2.907 6.908,1.564 8.06,3.962 8.06,7.18 v 13.17 q 7.2,1.9 14.392,4.372 v -67.111 q -5.181,-1.787 -10.362,-3.265 c -0.576,0.739 -1.152,1.112 -2.879,0.643 -2.3,-0.617 -3.454,-1.265 -5.181,-1.866 a 26.278,26.278 0 0 0 -8.06,-2.677 c -14.969,-2.808 -19.574,6.225 -19.574,14.943 v 21.829 c 0,14.1 5.181,24.6 13.817,34.873 10.362,12.949 17.271,23.575 17.271,30.4 0,3.288 -1.151,4.824 -9.211,3.062 -6.333,-1.3 -8.06,-3.492 -8.06,-6.762 v -13.17 q -6.909,-1.167 -13.817,-1.858 v 67.111 z m -500.659,145.277 c 182.906,65.482 365.813,-162.086 548.719,-96.9 v 48.11 c -182.906,-65.186 -365.813,162.382 -548.719,96.9 z"
     id="path1"
     style="display:inline;fill:#990d00;fill-opacity:1" />
  <path
     class="cls-1"
     d="m 571.643,580.386 q -5.181,-1.784 -10.363,-3.261 c -0.575,0.739 -1.151,1.112 -2.878,0.644 -2.3,-0.616 -3.454,-1.263 -5.182,-1.864 a 26.238,26.238 0 0 0 -8.059,-2.673 c -17.272,-3.188 -21.877,6.058 -21.877,14.732 v 21.83 c 0,20.545 10.362,32.65 19.574,43.1 7.484,8.787 13.241,19.9 13.241,22.956 0,2.543 -2.3,3.865 -8.06,2.615 -6.908,-1.431 -8.06,-3.507 -8.06,-6.783 v -13.17 q -7.2,-1.234 -14.393,-1.951 v 67.111 q 5.183,0.519 10.363,1.3 c 0.576,-0.814 1.152,-1.271 2.879,-0.987 a 34.72,34.72 0 0 1 5.181,1.469 34.109,34.109 0 0 0 8.06,2.624 c 14.969,3.684 19.574,-3.234 19.574,-12.2 v -21.837 c 0,-14.043 -5.181,-26.069 -13.817,-37.228 -10.363,-13.924 -17.271,-23.608 -17.271,-30.5 0,-3.209 1.151,-5.137 9.211,-3.4 6.333,1.443 8.06,3.978 8.06,7.2 v 13.17 q 6.909,1.839 13.817,4.214 z M 506.424,622.3 c 0,-2.673 1.727,-4.4 9.787,-4.539 v -47.087 c 0,-0.722 -1.152,-1.148 -2.3,-1.2 a 255.694,255.694 0 0 0 -56.995,4.159 c -1.727,0.311 -2.879,0.893 -2.879,1.614 v 66.029 q 6.909,-1.309 13.817,-2.295 V 625.27 c 0,-3.215 3.455,-5.279 12.666,-6.195 8.06,-0.734 10.938,0.666 10.938,3.887 v 46.906 c 0,2.735 -1.727,4.338 -9.787,5.568 v 47.085 c 0,0.723 1.152,0.976 2.879,0.839 a 235.694,235.694 0 0 1 29.361,-0.541 c 1.151,0.052 2.3,-0.244 2.3,-0.965 v -47.086 c -8.06,-0.944 -9.787,-2.463 -9.787,-5.2 V 622.3 Z M 397.733,730.488 c 0,7.427 10.362,8.607 24.755,4.523 14.393,-4.084 24.756,-10.99 24.756,-18.407 v -128.81 c 0,-7.375 -10.363,-10.2 -24.756,-6.127 -14.393,4.073 -24.755,12.645 -24.755,20.011 z m 34.542,-53.5 c 0,3.27 -1.151,6.907 -9.787,9.312 -8.06,2.306 -9.787,-0.521 -9.787,-3.787 v -42.574 c 0,-3.229 1.727,-7.257 9.787,-9.563 8.636,-2.4 9.787,0.814 9.787,4.038 v 42.576 0 z M 377.3,597.863 c 0,-0.722 -1.727,-0.428 -3.454,0.237 -9.595,3.691 -19.19,7.6 -28.785,11.644 -1.728,0.728 -2.879,1.578 -2.879,2.3 v 47.086 c 8.06,-2.868 9.787,-1.933 9.787,0.766 v 50.875 c 0,0.9 -2.3,2.216 -4.606,3.182 -1.727,0.723 -4.03,1.336 -4.03,0.434 v -17.68 q -6.908,2.923 -13.817,5.925 v 66.029 c 0,0.722 1.152,0.582 2.879,-0.164 18.231,-7.875 36.461,-15.4 54.692,-22 1.152,-0.416 2.3,-1.189 2.3,-1.91 v -66.029 q -6.909,2.471 -13.817,5.114 v 17.679 c 0,0.9 -2.3,2.143 -4.03,2.815 -2.3,0.894 -4.03,1.217 -4.03,0.314 v -50.874 c 0,-2.692 1.152,-4.82 9.787,-8.657 v -47.086 0 z M 561.856,461.944 c 0,-2.664 1.727,-3.947 9.787,-1.775 v -47.086 c 0,-0.722 -1.151,-1.48 -2.3,-1.86 q -6.333,-2.1 -12.665,-3.739 c -33.391,-7.817 -44.33,-1.339 -44.33,8.333 v 53.039 c 0,4 4.03,7.643 12.09,10.182 -8.06,0.888 -12.09,4.638 -12.09,8.761 v 51.776 c 0,10.895 10.939,13.437 44.33,21.253 q 6.333,1.647 12.665,3.74 c 1.152,0.38 2.3,0.416 2.3,-0.3 v -47.091 c -8.06,-3.255 -9.787,-5.219 -9.787,-7.967 z M 546.888,504.6 c 0,3.291 -1.152,4.873 -9.787,3.449 -6.909,-1.069 -10.939,-3.386 -10.939,-6.651 v -13.71 c 0,-3.22 5.182,-5.341 13.817,-3.88 q 3.455,0.592 6.909,1.309 z m 0,-24.9 q -3.454,-0.717 -6.909,-1.309 c -8.635,-1.461 -13.817,-4.392 -13.817,-7.666 v -14.969 c 0,-3.214 2.879,-4.854 10.939,-3.631 8.635,1.424 9.787,3.63 9.787,6.833 v 20.747 0 z m -52.67,-25.615 c 0,-2.675 1.727,-4.486 9.787,-5.063 v -47.081 c 0,-0.722 -1.152,-1.085 -2.3,-1.074 a 252.518,252.518 0 0 0 -29.361,2.017 c -1.727,0.217 -2.879,0.738 -2.879,1.459 v 47.086 c 8.06,-0.519 9.787,1.035 9.787,3.714 v 21.469 q -4.029,0.4 -8.06,0.926 c -7.484,0.978 -12.665,-0.582 -12.665,-3.841 v -59.714 c 0,-5.39 -4.606,-8.3 -13.817,-6.3 q -3.743,0.82 -7.485,1.726 c -1.727,0.411 -5.181,1.648 -5.181,2.374 v 47.987 c 10.939,-2.387 12.666,-0.992 12.666,1.674 v 14.076 c 0,3.977 4.03,6.659 10.362,7.279 -6.332,2.808 -10.362,7.523 -10.362,11.663 v 51.777 c 0,10.727 10.938,11.118 44.329,8.419 q 6.333,-0.389 12.666,-0.446 c 1.151,-0.011 2.3,-0.37 2.3,-1.091 v -47.086 c -8.06,-0.506 -9.787,-1.942 -9.787,-4.679 v -47.266 0 z m -14.969,47.418 c 0,3.279 -1.151,5.26 -9.787,6.388 -6.908,0.952 -10.938,-0.27 -10.938,-3.53 v -13.706 c 0,-3.236 5.181,-6.727 12.665,-7.7 q 4.03,-0.525 8.06,-0.927 v 19.484 0 z M 375.74,570.066 c 0,7.423 10.363,8.207 24.756,3.37 14.393,-4.837 24.755,-12.436 24.755,-19.848 v -128.81 c 0,-7.38 -10.362,-9.517 -24.755,-4.687 -14.393,4.83 -24.756,13.8 -24.756,21.165 z m 34.543,-55.187 c 0,3.267 -1.151,6.984 -9.787,9.848 -8.06,2.723 -9.787,-0.035 -9.787,-3.3 v -42.573 c 0,-3.232 1.727,-7.33 9.787,-10.053 8.636,-2.864 9.787,0.274 9.787,3.5 v 42.576 0 z m -54.974,-76.7 c 0,-0.722 -1.727,-0.374 -3.454,0.342 -9.6,3.975 -19.19,8.105 -28.786,12.3 -1.727,0.756 -2.878,1.623 -2.878,2.344 v 47.086 c 8.06,-2.992 9.787,-2.1 9.787,0.6 v 50.874 c 0,0.9 -2.3,2.261 -4.606,3.267 -1.727,0.753 -4.03,1.4 -4.03,0.5 v -17.68 q -6.907,3.029 -13.817,6.092 v 66.029 c 0,0.722 1.152,0.572 2.879,-0.192 18.231,-8.062 36.461,-16.008 54.692,-23.259 1.152,-0.458 2.3,-1.273 2.3,-2 v -66.021 q -6.909,2.724 -13.817,5.579 v 17.679 c 0,0.9 -2.3,2.213 -4.03,2.934 -2.3,0.96 -4.03,1.328 -4.03,0.426 V 494.2 c 0,-2.7 1.151,-4.839 9.787,-8.941 v -47.081 0 z M 274.425,551.132 V 572.6 a 5.736,5.736 0 0 1 -1.727,4 29.386,29.386 0 0 1 -8.06,5.116 V 628.8 c 0,0.722 1.152,0.587 2.879,-0.16 9.787,-4.234 19.574,-8.566 29.361,-12.906 1.151,-0.51 2.3,-1.382 2.3,-2.1 v -47.086 c -8.06,3.033 -9.787,2.171 -9.787,-0.534 v -47.266 a 6.49,6.49 0 0 1 1.727,-4.012 43.045,43.045 0 0 1 8.06,-5.2 v -47.082 c 0,-0.722 -1.152,-0.572 -2.3,-0.061 -9.787,4.34 -19.574,8.671 -29.361,12.905 -1.727,0.747 -2.879,1.6 -2.879,2.325 v 47.086 c 8.06,-2.937 9.787,-2.086 9.787,0.625 v 21.107 q -11.514,5.029 -23.028,9.874 v -21.107 a 6.344,6.344 0 0 1 1.727,-3.972 42.793,42.793 0 0 1 8.06,-5.044 v -47.086 c 0,-0.722 -1.151,-0.589 -2.879,0.146 -9.595,4.082 -19.19,8.043 -28.785,11.8 -1.151,0.451 -2.879,1.481 -2.879,2.2 v 47.086 c 8.06,-2.6 9.787,-1.7 9.787,1.012 v 47.267 a 5.522,5.522 0 0 1 -1.727,3.938 27.485,27.485 0 0 1 -8.06,4.791 v 47.086 c 0,0.722 1.728,0.414 2.879,-0.038 9.595,-3.755 19.19,-7.716 28.785,-11.8 1.728,-0.735 2.879,-1.589 2.879,-2.31 V 583.2 c -8.06,2.9 -9.787,1.974 -9.787,-0.726 v -21.468 q 11.514,-4.822 23.028,-9.874 z m -56.13,49.39 c -8.06,2.45 -9.787,1.39 -9.787,-1.3 v -47.27 c 0,-2.719 1.727,-4.906 9.787,-8.438 v -47.086 c 0,-0.722 -1.151,-0.653 -2.3,-0.228 A 493.139,493.139 0 0 1 163.6,512.6 c -2.3,0.566 -2.879,1.058 -2.879,1.781 v 65.489 q 6.909,-1.649 13.817,-3.57 v -13.17 c 0,-3.088 1.152,-4.951 9.787,-7.529 8.06,-2.466 9.212,-1.1 9.212,2.164 v 20.386 q -6.621,2.147 -13.242,4.086 v 4.69 q 6.621,-1.935 13.242,-4.085 v 20.566 c 0,3.23 -1.152,5.653 -9.212,8.119 -8.635,2.578 -9.787,1.193 -9.787,-1.852 v -13.17 q -6.907,1.917 -13.817,3.57 v 65.487 c 0,0.72 0.576,0.95 2.879,0.384 a 493.37,493.37 0 0 0 52.389,-16.4 c 1.152,-0.425 2.3,-1.216 2.3,-1.937 v -47.087 z m -75.7,-30.362 c 0,-2.729 1.728,-4.578 9.787,-6.8 v -47.091 c 0,-0.721 -1.151,-0.836 -2.3,-0.6 -9.787,2.016 -19.574,3.575 -29.362,4.588 -1.727,0.178 -2.878,0.642 -2.878,1.364 v 47.086 c 8.06,-0.245 9.787,1.051 9.787,3.784 v 21.469 q -4.031,0.52 -8.06,0.921 c -7.484,0.739 -12.666,-1.6 -12.666,-4.832 v -59.713 c 0,-5.444 -4.605,-8.689 -13.817,-8.745 q -3.742,-0.038 -7.484,-0.2 c -1.727,-0.064 -5.181,0.082 -5.181,0.8 v 47.988 c 10.939,1 12.666,2.4 12.666,5.173 v 14.072 c 0,3.959 4.03,7.66 10.363,9.25 -6.333,1.837 -10.363,5.533 -10.363,9.693 v 51.776 c 0,9.859 10.939,16.219 44.33,11.219 q 6.333,-1.038 12.666,-2.347 c 1.151,-0.237 2.3,-0.843 2.3,-1.565 v -47.087 c -8.059,1.145 -9.787,-0.254 -9.787,-2.937 V 570.16 Z m -14.968,48.7 c 0,3.214 -1.151,5.467 -9.787,6.318 -6.909,0.629 -10.939,-1.222 -10.939,-4.456 v -13.714 c 0,-3.258 5.182,-5.975 12.666,-6.714 q 4.031,-0.4 8.06,-0.921 v 19.484 0 z m -54.29,-98.345 q -5.181,-0.52 -10.363,-1.3 c -0.576,0.814 -1.152,1.271 -2.879,0.986 a 34.845,34.845 0 0 1 -5.181,-1.471 34.138,34.138 0 0 0 -8.06,-2.627 c -17.271,-4.3 -21.877,2.367 -21.877,11.386 v 21.829 c 0,20.6 10.363,35.471 19.574,46.329 7.484,9.253 13.241,19.761 13.241,22.84 0,2.509 -2.3,4.154 -8.06,2.907 -6.909,-1.564 -8.06,-3.962 -8.06,-7.18 v -13.17 q -7.2,-1.9 -14.393,-4.372 v 67.111 q 5.181,1.787 10.363,3.265 c 0.576,-0.739 1.151,-1.112 2.879,-0.643 2.3,0.617 3.454,1.265 5.181,1.866 a 26.273,26.273 0 0 0 8.06,2.677 c 14.969,2.808 19.574,-6.225 19.574,-14.943 v -21.834 c 0,-14.1 -5.181,-24.6 -13.817,-34.873 -10.363,-12.949 -17.271,-23.575 -17.271,-30.4 0,-3.288 1.151,-4.824 9.211,-3.062 6.333,1.3 8.06,3.492 8.06,6.762 v 13.17 q 6.909,1.167 13.817,1.858 v -67.111 z m -45.98,-301.9 q 5.181,1.783 10.363,3.261 c 0.576,-0.739 1.151,-1.112 2.879,-0.644 2.3,0.616 3.454,1.263 5.181,1.864 a 26.251,26.251 0 0 0 8.06,2.673 c 17.271,3.188 21.877,-6.058 21.877,-14.732 v -21.83 c 0,-20.545 -10.363,-32.65 -19.574,-43.095 -7.484,-8.787 -13.241,-19.9 -13.241,-22.956 0,-2.543 2.3,-3.865 8.06,-2.615 6.908,1.431 8.06,3.507 8.06,6.783 v 13.17 q 7.2,1.235 14.393,1.951 V 75.333 q -5.181,-0.519 -10.363,-1.3 c -0.576,0.814 -1.151,1.271 -2.879,0.987 a 34.88,34.88 0 0 1 -5.181,-1.469 34.075,34.075 0 0 0 -8.06,-2.624 c -14.968,-3.684 -19.574,3.234 -19.574,12.2 v 21.83 c 0,14.043 5.181,26.069 13.817,37.228 10.363,13.924 17.271,23.608 17.271,30.5 0,3.209 -1.151,5.137 -9.211,3.4 -6.333,-1.443 -8.06,-3.978 -8.06,-7.2 v -13.17 q -6.908,-1.839 -13.817,-4.214 v 67.111 0 z M 92.576,176.7 c 0,2.673 -1.727,4.4 -9.787,4.539 v 47.086 c 0,0.722 1.151,1.148 2.3,1.2 a 255.694,255.694 0 0 0 56.995,-4.159 c 1.727,-0.311 2.879,-0.893 2.879,-1.614 v -66.028 q -6.909,1.31 -13.817,2.3 v 13.706 c 0,3.215 -3.455,5.279 -12.666,6.2 -8.06,0.734 -10.938,-0.666 -10.938,-3.887 v -46.911 c 0,-2.735 1.727,-4.338 9.787,-5.568 V 76.479 c 0,-0.722 -1.152,-0.975 -2.879,-0.838 a 235.693,235.693 0 0 1 -29.361,0.54 c -1.151,-0.052 -2.3,0.244 -2.3,0.966 v 47.086 c 8.06,0.944 9.787,2.463 9.787,5.2 V 176.7 Z M 201.267,68.512 c 0,-7.427 -10.362,-8.608 -24.755,-4.524 -14.393,4.084 -24.756,10.991 -24.756,18.412 v 128.806 c 0,7.375 10.363,10.2 24.756,6.127 14.393,-4.073 24.755,-12.645 24.755,-20.011 z m -34.542,53.5 c 0,-3.27 1.151,-6.907 9.787,-9.312 8.06,-2.306 9.787,0.521 9.787,3.787 v 42.576 c 0,3.229 -1.727,7.257 -9.787,9.563 -8.636,2.405 -9.787,-0.814 -9.787,-4.038 v -42.578 0 z m 54.975,79.125 c 0,0.722 1.727,0.428 3.454,-0.237 9.595,-3.691 19.19,-7.6 28.785,-11.644 1.728,-0.728 2.879,-1.578 2.879,-2.3 V 139.87 c -8.06,2.868 -9.787,1.933 -9.787,-0.766 V 88.229 c 0,-0.9 2.3,-2.216 4.606,-3.182 1.727,-0.723 4.03,-1.336 4.03,-0.434 v 17.68 q 6.908,-2.924 13.817,-5.925 V 30.339 c 0,-0.722 -1.152,-0.582 -2.879,0.164 -18.231,7.875 -36.461,15.4 -54.692,22 -1.152,0.417 -2.3,1.189 -2.3,1.911 v 66.029 q 6.909,-2.47 13.817,-5.114 v -17.68 c 0,-0.9 2.3,-2.143 4.03,-2.815 2.3,-0.894 4.03,-1.216 4.03,-0.314 v 50.874 c 0,2.692 -1.152,4.82 -9.787,8.657 v 47.086 0 z M 37.144,337.056 c 0,2.664 -1.727,3.947 -9.787,1.775 v 47.086 c 0,0.722 1.151,1.48 2.3,1.86 q 6.333,2.1 12.666,3.739 c 33.391,7.817 44.33,1.339 44.33,-8.333 v -53.039 c 0,-4 -4.03,-7.643 -12.09,-10.182 8.06,-0.888 12.09,-4.638 12.09,-8.761 v -51.776 c 0,-10.9 -10.939,-13.437 -44.33,-21.253 q -6.333,-1.647 -12.666,-3.74 c -1.152,-0.38 -2.3,-0.416 -2.3,0.305 v 47.086 c 8.06,3.255 9.787,5.219 9.787,7.967 z M 52.112,294.4 c 0,-3.291 1.151,-4.873 9.787,-3.449 6.909,1.069 10.938,3.386 10.938,6.651 v 13.711 c 0,3.22 -5.181,5.341 -13.817,3.88 q -3.454,-0.592 -6.909,-1.309 v -19.484 0 z m 0,24.9 q 3.454,0.717 6.909,1.309 c 8.636,1.461 13.817,4.392 13.817,7.666 v 14.974 c 0,3.214 -2.879,4.854 -10.938,3.631 -8.636,-1.424 -9.787,-3.63 -9.787,-6.833 v -20.747 0 z m 52.67,25.615 c 0,2.675 -1.727,4.486 -9.787,5.063 v 47.086 c 0,0.722 1.151,1.085 2.3,1.074 a 252.517,252.517 0 0 0 29.361,-2.017 c 1.727,-0.217 2.879,-0.738 2.879,-1.459 v -47.091 c -8.06,0.519 -9.787,-1.035 -9.787,-3.714 v -21.469 q 4.029,-0.4 8.06,-0.926 c 7.484,-0.978 12.665,0.582 12.665,3.841 v 59.714 c 0,5.39 4.606,8.3 13.817,6.3 q 3.743,-0.82 7.485,-1.726 c 1.727,-0.411 5.181,-1.648 5.181,-2.374 v -47.991 c -10.939,2.387 -12.666,0.992 -12.666,-1.674 V 323.48 c 0,-3.977 -4.03,-6.659 -10.362,-7.279 6.332,-2.808 10.362,-7.523 10.362,-11.663 v -51.777 c 0,-10.727 -10.938,-11.118 -44.329,-8.419 q -6.333,0.388 -12.666,0.446 c -1.151,0.011 -2.3,0.37 -2.3,1.091 v 47.086 c 8.06,0.506 9.787,1.942 9.787,4.679 v 47.266 0 z m 14.969,-47.418 c 0,-3.279 1.151,-5.26 9.787,-6.388 6.908,-0.952 10.938,0.27 10.938,3.53 v 13.711 c 0,3.236 -5.181,6.727 -12.665,7.7 q -4.031,0.525 -8.06,0.927 v -19.485 0 z M 223.26,228.934 c 0,-7.423 -10.363,-8.207 -24.756,-3.37 -14.393,4.837 -24.755,12.436 -24.755,19.848 v 128.81 c 0,7.38 10.362,9.517 24.755,4.687 14.393,-4.83 24.756,-13.8 24.756,-21.165 z m -34.543,55.187 c 0,-3.267 1.151,-6.984 9.787,-9.848 8.06,-2.723 9.787,0.035 9.787,3.3 v 42.576 c 0,3.232 -1.727,7.33 -9.787,10.053 -8.636,2.864 -9.787,-0.274 -9.787,-3.5 z m 54.974,76.7 c 0,0.722 1.727,0.374 3.454,-0.342 9.595,-3.975 19.19,-8.105 28.786,-12.3 1.727,-0.756 2.878,-1.623 2.878,-2.344 v -47.088 c -8.06,2.992 -9.787,2.1 -9.787,-0.6 v -50.874 c 0,-0.9 2.3,-2.261 4.606,-3.267 1.727,-0.753 4.03,-1.4 4.03,-0.5 v 17.68 q 6.907,-3.029 13.817,-6.092 v -66.029 c 0,-0.722 -1.152,-0.572 -2.879,0.192 -18.231,8.062 -36.461,16.008 -54.692,23.259 -1.152,0.458 -2.3,1.273 -2.3,2 v 66.028 q 6.909,-2.724 13.817,-5.579 v -17.684 c 0,-0.9 2.3,-2.213 4.03,-2.934 2.3,-0.96 4.03,-1.328 4.03,-0.426 V 304.8 c 0,2.7 -1.151,4.839 -9.787,8.941 v 47.085 0 z M 324.575,247.867 V 226.4 a 5.736,5.736 0 0 1 1.727,-4 29.386,29.386 0 0 1 8.06,-5.116 V 170.2 c 0,-0.722 -1.152,-0.587 -2.879,0.16 -9.787,4.234 -19.574,8.566 -29.361,12.906 -1.151,0.51 -2.3,1.382 -2.3,2.1 v 47.086 c 8.06,-3.033 9.787,-2.171 9.787,0.534 v 47.266 a 6.49,6.49 0 0 1 -1.727,4.012 43.045,43.045 0 0 1 -8.06,5.2 v 47.086 c 0,0.722 1.152,0.572 2.3,0.061 9.787,-4.34 19.574,-8.671 29.361,-12.905 1.727,-0.747 2.879,-1.6 2.879,-2.325 v -47.09 c -8.06,2.937 -9.787,2.086 -9.787,-0.625 v -21.107 q 11.514,-5.03 23.028,-9.874 v 21.107 a 6.344,6.344 0 0 1 -1.727,3.972 42.793,42.793 0 0 1 -8.06,5.044 v 47.086 c 0,0.722 1.151,0.589 2.879,-0.146 9.6,-4.082 19.19,-8.043 28.785,-11.8 1.151,-0.451 2.879,-1.481 2.879,-2.2 v -47.087 c -8.06,2.595 -9.787,1.7 -9.787,-1.012 v -47.267 a 5.522,5.522 0 0 1 1.727,-3.938 27.485,27.485 0 0 1 8.06,-4.791 v -47.086 c 0,-0.722 -1.728,-0.414 -2.879,0.038 -9.6,3.755 -19.19,7.716 -28.785,11.8 -1.728,0.735 -2.879,1.589 -2.879,2.31 V 215.8 c 8.06,-2.9 9.787,-1.974 9.787,0.726 v 21.468 q -11.514,4.823 -23.028,9.874 v 0 z m 56.13,-49.39 c 8.06,-2.45 9.787,-1.39 9.787,1.3 v 47.267 c 0,2.719 -1.727,4.906 -9.787,8.438 v 47.086 c 0,0.722 1.151,0.653 2.3,0.228 A 493.139,493.139 0 0 1 435.4,286.4 c 2.3,-0.566 2.879,-1.058 2.879,-1.781 V 219.13 q -6.909,1.649 -13.817,3.57 v 13.17 c 0,3.088 -1.152,4.951 -9.787,7.529 -8.06,2.466 -9.212,1.1 -9.212,-2.164 v -20.386 q 6.621,-2.146 13.242,-4.086 v -4.69 q -6.621,1.935 -13.242,4.085 v -20.566 c 0,-3.23 1.152,-5.653 9.212,-8.119 8.635,-2.578 9.787,-1.193 9.787,1.852 V 202.5 q 6.908,-1.917 13.817,-3.57 v -65.492 c 0,-0.72 -0.576,-0.95 -2.879,-0.384 a 493.37,493.37 0 0 0 -52.389,16.4 c -1.152,0.425 -2.3,1.216 -2.3,1.937 v 47.086 z m 75.7,30.362 c 0,2.729 -1.728,4.578 -9.787,6.805 v 47.086 c 0,0.721 1.151,0.836 2.3,0.6 9.787,-2.016 19.574,-3.575 29.362,-4.588 1.727,-0.178 2.878,-0.642 2.878,-1.364 v -47.086 c -8.06,0.245 -9.787,-1.051 -9.787,-3.784 v -21.469 q 4.031,-0.52 8.06,-0.921 c 7.484,-0.739 12.666,1.6 12.666,4.832 v 59.714 c 0,5.444 4.605,8.689 13.817,8.745 q 3.741,0.038 7.484,0.2 c 1.727,0.064 5.181,-0.082 5.181,-0.8 v -47.987 c -10.938,-1 -12.665,-2.405 -12.665,-5.173 v -14.072 c 0,-3.959 -4.03,-7.66 -10.363,-9.25 6.333,-1.837 10.363,-5.533 10.363,-9.693 v -51.776 c 0,-9.859 -10.939,-16.219 -44.33,-11.219 q -6.333,1.038 -12.666,2.347 c -1.151,0.237 -2.3,0.843 -2.3,1.565 v 47.086 c 8.059,-1.145 9.787,0.254 9.787,2.937 v 47.266 z m 14.968,-48.7 c 0,-3.214 1.151,-5.467 9.787,-6.318 6.909,-0.629 10.939,1.222 10.939,4.456 v 13.711 c 0,3.258 -5.182,5.975 -12.666,6.714 q -4.031,0.4 -8.06,0.921 v -19.48 0 z m 54.286,98.342 q 5.181,0.52 10.362,1.305 c 0.576,-0.814 1.152,-1.271 2.879,-0.986 a 34.824,34.824 0 0 1 5.181,1.471 34.146,34.146 0 0 0 8.06,2.627 c 17.272,4.3 21.877,-2.367 21.877,-11.386 v -21.825 c 0,-20.6 -10.363,-35.471 -19.574,-46.329 -7.484,-9.253 -13.241,-19.761 -13.241,-22.84 0,-2.509 2.3,-4.154 8.06,-2.907 6.908,1.564 8.06,3.962 8.06,7.18 v 13.17 q 7.2,1.9 14.392,4.372 v -67.111 q -5.181,-1.787 -10.362,-3.265 c -0.576,0.739 -1.152,1.112 -2.879,0.643 -2.3,-0.617 -3.454,-1.265 -5.181,-1.866 a 26.278,26.278 0 0 0 -8.06,-2.677 c -14.969,-2.808 -19.574,6.225 -19.574,14.943 v 21.829 c 0,14.1 5.181,24.6 13.817,34.873 10.362,12.949 17.271,23.575 17.271,30.4 0,3.288 -1.151,4.824 -9.211,3.062 -6.333,-1.3 -8.06,-3.492 -8.06,-6.762 v -13.17 q -6.909,-1.167 -13.817,-1.858 v 67.111 z M 25,423.758 c 182.906,65.482 365.813,-162.086 548.719,-96.9 v 48.11 C 390.813,309.782 207.906,537.35 25,471.868 Z"
     id="path4"
     style="display:inline" />
</svg>
