<?xml version="1.0" encoding="UTF-8" standalone="no"?>
<svg
   width="1000"
   height="500"
   viewBox="0 0 1000 500"
   version="1.1"
   id="svg1"
   xml:space="preserve"
   xmlns:x="adobe:ns:meta/"
   xmlns="http://www.w3.org/2000/svg"
   xmlns:svg="http://www.w3.org/2000/svg"
   xmlns:rdf="http://www.w3.org/1999/02/22-rdf-syntax-ns#"><metadata
     id="metadata1"><?xpacket begin="﻿" id="W5M0MpCehiHzreSzNTczkc9d"?><x:xmpmeta
       x:xmptk="Adobe XMP Core 5.6-c142 79.160924, 2017/07/13-01:06:39        "><rdf:RDF><rdf:Description
           rdf:about="" /></rdf:RDF></x:xmpmeta><?xpacket end="w"?></metadata><defs
     id="defs1"><style
       id="style1">&#10;      .cls-1 {&#10;        fill: #36c709;&#10;        fill-rule: evenodd;&#10;      }&#10;    </style></defs><path
     id="path89"
     data-name="Rectangle 1 copy 5"
     class="cls-1"
     d="m 119.664,342.145 c 3.12067,-2.24067 6.242,-4.39967 9.364,-6.477 0.33277,-1.55738 1.26724,-2.92026 2.6,-3.792 1.48109,-0.8941 3.04996,-1.63397 4.682,-2.208 2.081,-0.258 4.162,-1.278 7.283,-3.111 15.608,-8.95 19.769,-23.425 19.769,-36.305 v -52.463 c 0,-29.661 -9.364,-41.254 -17.688,-48.889 -6.763,-6.776 -11.965,-17.169 -11.965,-21.6 0,-3.626 2.081,-7.876 7.283,-11.014 6.243,-3.71 7.284,-1.345 7.284,3.312 v 18.981 c 4.33333,-2.43267 8.66833,-4.71933 13.005,-6.86 V 95.995 c -3.12067,1.542 -6.242,3.159 -9.364,4.851 -0.31844,1.49037 -1.26671,2.7698 -2.6,3.508 -1.50404,0.75938 -3.07045,1.38835 -4.682,1.88 -2.081,0.171 -4.162,1.14 -7.283,3.071 -13.527,8.52 -17.688,24.932 -17.688,37.566 v 10.462 c 0,20.3 4.682,31.39 12.485,39.056 9.364,10.067 15.607,19.176 15.607,29.028 0,4.713 -1.04,8.039 -8.323,12.42 -5.723,3.508 -7.284,1.735 -7.284,-2.965 v -18.981 c -4.162,2.69733 -8.32367,5.53967 -12.485,8.527 z m 63.462,-132.186 c 0,3.929 -1.56,6.763 -8.844,10.627 v 88.866 c 0,1.04 1.041,1.113 2.081,0.677 16.57316,-6.96098 33.83575,-12.15048 51.5,-15.482 1.56,-0.294 2.6,-1 2.6,-2.037 V 176.442 c -4.162,0.74067 -8.324,1.58867 -12.486,2.544 v 19.761 c 0,4.711 -3.121,7.385 -11.445,9.673 -7.283,2.064 -9.885,0.922 -9.885,-3.782 v -67.6 c 0,-3.873 1.561,-6.82 8.844,-9.706 V 80.463 c 0,-1.039 -1.04,-1.267 -2.6,-0.806 -9.01026,2.664849 -17.86756,5.821925 -26.532,9.457 -1.09205,0.366872 -1.89245,1.306508 -2.081,2.443 v 46.865 c 7.284,-2.3 8.844,-0.458 8.844,3.413 v 68.125 0 z M 285.612,86.778 c 0,-10.629 -9.364,-18.042 -22.37,-17.365 -13.006,0.677 -22.37,9.153 -22.37,19.787 v 185.653 c 0,10.688 9.364,16.263 22.37,15.576 13.006,-0.687 22.37,-7.306 22.37,-18 z m -31.212,42.07 c 0,-4.655 1.041,-9.778 8.844,-10.231 7.283,-0.354 8.844,4.632 8.844,9.291 v 61.365 c 0,4.7 -1.561,9.6 -8.844,9.95 -7.8,0.452 -8.844,-4.305 -8.844,-9.011 z m 55.661,161.21 c 0,1.04 1.561,1.713 3.122,1.881 8.67,0.93333 17.34067,2.169 26.012,3.707 1.56,0.276 2.6,-0.053 2.6,-1.093 v -88.866 c -7.284,-2.088 -8.844,-4.623 -8.844,-8.538 v -73.325 c 0,-1.3 2.081,-1.487 4.162,-1.13 1.56,0.265 3.641,1.158 3.641,2.459 v 25.482 c 4.162,0.74867 8.324,1.55933 12.486,2.432 V 78.9 c 0,-1.04 -1.04,-1.779 -2.6,-2.1 -16.3083,-3.375298 -32.81665,-5.699087 -49.423,-6.957 -1.04,-0.075 -2.081,0.376 -2.081,1.416 v 74.166 c 4.162,0.27467 8.324,0.62667 12.486,1.056 V 121 c 0,-1.3 2.081,-1.605 3.642,-1.427 2.081,0.235 3.641,0.951 3.641,2.251 v 73.325 c 0,3.921 -1.04,6.059 -8.844,6.04 v 88.866 0 z m 103,-73.132 c 0,3.909 -1.561,5.721 -8.844,4.268 v 88.866 c 0.17077,1.0937 0.99847,1.96874 2.081,2.2 3.81467,1.17467 7.62967,2.38 11.445,3.616 30.174,9.949 40.058,7.463 40.058,-7.47 v -97.449 c 0,-5.716 -3.641,-12.259 -10.924,-17.451 7.283,0.252 10.924,-3.866 10.924,-9.851 v -53.624 c 0,-14.71 -9.884,-25.225 -40.058,-35.174 -3.81533,-1.238 -7.62967,-2.443333 -11.443,-3.616 -1.04,-0.32 -2.081,-0.117 -2.081,0.923 v 46.864 c 7.283,3.013 8.844,5.881 8.844,9.773 v 68.125 0 z m 13.526,-62.412 c 0,-4.673 1.041,-7.213 8.844,-4.537 6.243,2.153 9.885,6.316 9.885,10.993 v 19.761 c 0,4.685 -4.682,6.646 -12.486,3.976 -2.08067,-0.71067 -4.16167,-1.41433 -6.243,-2.111 z m 0,35.883 c 2.08133,0.696 4.16233,1.39967 6.243,2.111 7.8,2.67 12.486,7.99 12.486,12.665 v 21.582 c 0,4.685 -2.6,6.343 -9.885,3.828 -7.8,-2.676 -8.844,-5.6 -8.844,-10.284 v -29.899 0 z m 48.377,48.22 c 0,3.9 -1.56,5.648 -8.844,3.733 v 88.866 c 0.18195,1.11507 0.99349,2.02372 2.081,2.33 8.844,3.27733 17.688,6.60433 26.532,9.981 1.561,0.593 2.6,0.469 2.6,-0.571 V 254.09 c -7.284,-3.55 -8.844,-6.477 -8.844,-10.379 v -30.942 c 2.42733,0.92 4.855,1.84167 7.283,2.765 6.763,2.573 11.445,8 11.445,12.679 V 335.28 c 0,7.8 4.162,14.59 12.486,17.752 2.254,0.856 4.50833,1.71033 6.763,2.563 1.561,0.59 4.682,1.246 4.682,0.206 v -90.166 c -9.885,-4.247 -11.445,-7.192 -11.445,-11.089 v -20.281 c 0,-5.721 -3.642,-12.3 -9.365,-17.084 5.723,-0.159 9.365,-4.238 9.365,-10.218 v -53.625 c 0,-14.8 -9.885,-25.122 -40.058,-36.535 -3.816,-1.434 -7.63133,-2.85867 -11.446,-4.274 -1.04,-0.386 -2.081,-0.25 -2.081,0.79 v 46.864 c 7.284,3.475 8.844,6.411 8.844,10.308 v 68.125 0 z m 13.527,-61.73 c 0,-4.68 1.04,-7.15 8.844,-4.183 6.242,2.377 9.884,6.626 9.884,11.306 v 19.761 c 0,4.681 -4.682,6.535 -11.445,3.962 -2.428,-0.92333 -4.85567,-1.84467 -7.283,-2.764 z m 92.6,-4.83 c 0,-10.665 -9.364,-20.832 -22.37,-25.526 -13.006,-4.694 -22.37,-1.222 -22.37,9.448 v 185.653 c 0,10.652 9.364,21.217 22.37,25.914 13.006,4.697 22.37,0.821 22.37,-9.836 z m -31.214,30.081 c 0,-4.686 1.041,-9.226 8.844,-6.4 7.283,2.62 8.844,8.092 8.844,12.778 v 61.364 c 0,4.675 -1.561,9.083 -8.844,6.464 -7.8,-2.823 -8.844,-8.163 -8.844,-12.839 z m 50.459,178 c 0,1.04 1.561,2.053 3.121,2.538 8.67133,2.698 17.342,5.21933 26.012,7.564 1.561,0.419 2.6,0.173 2.6,-0.867 v -88.861 c -7.283,-2.719 -8.844,-5.537 -8.844,-9.426 V 217.76 c 0,-1.3 2.081,-1.236 4.162,-0.67 1.561,0.427 3.642,1.5 3.642,2.8 v 25.481 c 4.162,1.10733 8.32367,2.165 12.485,3.173 v -74.166 c 0,-1.04 -1.04,-1.81 -2.6,-2.195 -16.474,-4.07 -32.948,-8.948 -49.422,-14.339 -1.041,-0.34 -2.081,-0.164 -2.081,0.876 v 74.167 c 4.162,1.372 8.324,2.711 12.486,4.017 v -25.482 c 0,-1.3 2.08,-1.168 3.641,-0.688 2.081,0.641 3.642,1.632 3.642,2.932 v 73.325 c 0,3.89 -1.041,5.953 -8.844,4.286 v 88.866 0 z M 674.208,265.6 v -30.94 c 0,-2.08067 0.52033,-3.552 1.561,-4.414 1.561,-1.039 3.642,-1.468 7.283,-1.178 V 182.2 c 0,-1.041 -1.04,-1.715 -2.6,-1.96 -8.844,-1.388 -17.688,-3.062 -26.532,-5.022 -1.041,-0.229 -2.081,0.057 -2.081,1.1 v 46.864 c 7.283,2.4 8.844,5.007 8.844,8.92 v 68.125 c 0.0802,1.60249 -0.48159,3.17087 -1.561,4.358 -1.56,0.713 -3.641,1.058 -7.283,0.763 v 88.866 c 0.1574,1.06663 1.01028,1.89533 2.081,2.022 8.844,1.94467 17.688,3.619 26.532,5.023 1.561,0.245 2.6,-0.121 2.6,-1.161 v -88.864 c -7.283,-1.9 -8.844,-4.564 -8.844,-8.449 v -30.423 c 6.93667,1.2 13.87333,2.212 20.81,3.036 v 30.422 c 0.0633,1.6407 -0.49406,3.24498 -1.561,4.493 -1.561,0.847 -3.642,1.371 -7.283,1.377 v 88.865 c 0,1.04 1.04,1.71 2.6,1.921 8.67,1.17067 17.34067,2.02367 26.012,2.559 1.04,0.064 2.6,-0.374 2.6,-1.415 v -88.865 c -7.283,-1.186 -8.844,-3.718 -8.844,-7.6 V 239.03 c -0.14822,-1.67269 0.41895,-3.3299 1.561,-4.561 1.56,-1.187 3.641,-1.813 7.283,-1.88 v -46.864 c 0,-1.04 -1.561,-1.642 -2.6,-1.706 -8.67133,-0.52133 -17.342,-1.37433 -26.012,-2.559 -1.561,-0.211 -2.6,0.159 -2.6,1.2 v 46.864 c 7.283,1.791 8.844,4.255 8.844,8.171 v 30.942 c -6.93733,-0.818 -13.874,-1.82967 -20.81,-3.035 v 0 z m 51.5,-32.689 c 7.284,0.938 8.844,3.2 8.844,7.118 v 68.125 c 0,3.881 -1.56,6.3 -8.844,6.922 v 88.866 c 0.13285,1.01717 1.06337,1.73529 2.081,1.606 15.83812,0.33651 31.6761,-0.67749 47.342,-3.031 2.081,-0.319 2.6,-0.931 2.6,-1.97 V 285.162 c -4.162,0.67733 -8.324,1.252 -12.486,1.724 v 18.982 c 0,4.394 -1.04,6.949 -8.844,7.62 -7.283,0.552 -8.324,-2.077 -8.324,-6.735 v -29.382 c 3.98933,-0.2 7.978,-0.488 11.966,-0.864 v -6.761 c -3.98933,0.376 -7.978,0.664 -11.966,0.864 v -29.642 c 0,-4.7 1.041,-7.533 8.324,-8.086 7.8,-0.67 8.844,1.454 8.844,5.9 v 18.981 c 4.162,-0.474 8.324,-1.04867 12.486,-1.724 v -73.385 c 0,-1.042 -0.52,-1.47 -2.6,-1.151 -15.66584,2.35399 -31.50387,3.368 -47.342,3.031 -1.04,-0.019 -2.081,0.474 -2.081,1.514 v 46.865 0 z m 69.192,68.357 c 0,3.875 -1.561,6.674 -8.844,8.921 v 88.866 c 0,1.04 1.04,1.356 2.081,1.142 8.96271,-1.83757 17.81961,-4.15795 26.532,-6.951 1.56,-0.5 2.6,-1.37 2.6,-2.41 v -88.865 c -7.284,1.6 -8.844,-0.385 -8.844,-4.258 v -30.942 c 2.428,-0.71 4.85567,-1.46 7.283,-2.25 6.763,-2.2 11.445,-0.4 11.445,4.3 v 107.062 c 0,7.772 4.162,11.524 12.486,7.9 2.254,-0.98933 4.50833,-2.016 6.763,-3.08 1.561,-0.729 4.682,-2.781 4.682,-3.827 v -90.164 c -9.884,4.3 -11.445,2.431 -11.445,-1.414 v -20.281 c 0,-5.73 -3.642,-9.283 -9.364,-9.626 5.722,-4.6 9.364,-11.7 9.364,-17.676 V 184.09 c 0,-15.243 -9.885,-15.7 -40.058,-7.532 -3.81533,0.96733 -7.63033,1.84167 -11.445,2.623 -1.06559,0.10322 -1.92386,0.91902 -2.081,1.978 v 46.865 c 7.283,-0.687 8.844,1.194 8.844,5.119 v 68.125 0 z m 13.526,-70.38 c 0,-4.712 1.04,-7.759 8.844,-10.3 6.243,-2.085 9.884,-0.665 9.884,4.028 v 19.761 c 0,4.67 -4.682,10.144 -11.445,12.347 -2.428,0.79 -4.85567,1.53967 -7.283,2.249 z m 47.86,144.9 c 3.122,-1.63133 6.24333,-3.33867 9.364,-5.122 0.32443,-1.50699 1.26813,-2.80785 2.6,-3.584 1.50118,-0.80333 3.06739,-1.47872 4.682,-2.019 2.081,-0.234 4.162,-1.265 7.283,-3.291 15.607,-10.348 19.769,-27.1 19.769,-39.692 V 269.619 C 899.99,240 890.626,231 882.3,223.96 c -6.763,-6.184 -11.965,-16.926 -11.965,-21.337 0,-3.654 2.081,-7.7 7.283,-10.988 6.243,-4.007 7.283,-1.942 7.283,2.763 v 18.981 c 4.33333,-2.93333 8.66867,-6.02367 13.006,-9.271 v -75.727 c -3.12133,2.342 -6.24267,4.59967 -9.364,6.773 -0.33918,1.57612 -1.2697,2.96223 -2.6,3.873 -1.47816,0.93848 -3.04666,1.72642 -4.682,2.352 -2.081,0.321 -4.162,1.405 -7.284,3.332 -13.526,8.192 -17.688,22.96 -17.688,35.8 v 10.461 c 0,20.259 4.682,32.483 12.486,40.653 9.364,10.6 15.607,18.737 15.607,28.644 0,4.647 -1.041,8.332 -8.324,12.953 -5.722,3.564 -7.283,1.547 -7.283,-3.115 v -18.976 c -4.162,2.448 -8.324,4.75833 -12.486,6.931 V 375.79 Z M 112,371.817 C 372.124,173.573 632.248,564.3 892.371,377.463 v 28 C 632.248,592.3 372.124,201.574 112,399.818 v -28 z"
     style="display:inline;fill:#990d00;fill-opacity:1;stroke:none;stroke-width:2;stroke-linecap:round;stroke-linejoin:miter;stroke-dasharray:none;stroke-opacity:1" /><path
     id="Rectangle_1_copy_5"
     data-name="Rectangle 1 copy 5"
     class="cls-1"
     d="m 113.664,319.145 c 3.12067,-2.24067 6.242,-4.39967 9.364,-6.477 0.33277,-1.55738 1.26724,-2.92026 2.6,-3.792 1.48109,-0.8941 3.04996,-1.63397 4.682,-2.208 2.081,-0.258 4.162,-1.278 7.283,-3.111 15.608,-8.95 19.769,-23.425 19.769,-36.305 v -52.463 c 0,-29.661 -9.364,-41.254 -17.688,-48.889 -6.763,-6.776 -11.965,-17.169 -11.965,-21.6 0,-3.626 2.081,-7.876 7.283,-11.014 6.243,-3.71 7.284,-1.345 7.284,3.312 v 18.981 c 4.33333,-2.43267 8.66833,-4.71933 13.005,-6.86 V 72.995 c -3.12067,1.542 -6.242,3.159 -9.364,4.851 -0.31844,1.490369 -1.26671,2.7698 -2.6,3.508 -1.50404,0.759378 -3.07045,1.38835 -4.682,1.88 -2.081,0.171 -4.162,1.14 -7.283,3.071 -13.527,8.52 -17.688,24.932 -17.688,37.566 v 10.462 c 0,20.3 4.682,31.39 12.485,39.056 9.364,10.067 15.607,19.176 15.607,29.028 0,4.713 -1.04,8.039 -8.323,12.42 -5.723,3.508 -7.284,1.735 -7.284,-2.965 v -18.981 c -4.162,2.69733 -8.32367,5.53967 -12.485,8.527 z m 63.462,-132.186 c 0,3.929 -1.56,6.763 -8.844,10.627 v 88.866 c 0,1.04 1.041,1.113 2.081,0.677 16.57316,-6.96098 33.83575,-12.15048 51.5,-15.482 1.56,-0.294 2.6,-1 2.6,-2.037 V 153.442 c -4.162,0.74067 -8.324,1.58867 -12.486,2.544 v 19.761 c 0,4.711 -3.121,7.385 -11.445,9.673 -7.283,2.064 -9.885,0.922 -9.885,-3.782 v -67.6 c 0,-3.873 1.561,-6.82 8.844,-9.706 V 57.463 c 0,-1.039 -1.04,-1.267 -2.6,-0.806 -9.01026,2.664849 -17.86756,5.821925 -26.532,9.457 -1.09205,0.366872 -1.89245,1.306508 -2.081,2.443 v 46.865 c 7.284,-2.3 8.844,-0.458 8.844,3.413 v 68.125 0 z M 279.612,63.778 c 0,-10.629 -9.364,-18.042 -22.37,-17.365 -13.006,0.677 -22.37,9.153 -22.37,19.787 v 185.653 c 0,10.688 9.364,16.263 22.37,15.576 13.006,-0.687 22.37,-7.306 22.37,-18 z m -31.212,42.07 c 0,-4.655 1.041,-9.778 8.844,-10.231 7.283,-0.354 8.844,4.632 8.844,9.291 v 61.365 c 0,4.7 -1.561,9.6 -8.844,9.95 -7.8,0.452 -8.844,-4.305 -8.844,-9.011 z m 55.661,161.21 c 0,1.04 1.561,1.713 3.122,1.881 8.67,0.93333 17.34067,2.169 26.012,3.707 1.56,0.276 2.6,-0.053 2.6,-1.093 v -88.866 c -7.284,-2.088 -8.844,-4.623 -8.844,-8.538 v -73.325 c 0,-1.3 2.081,-1.487 4.162,-1.13 1.56,0.265 3.641,1.158 3.641,2.459 v 25.482 c 4.162,0.74867 8.324,1.55933 12.486,2.432 V 55.9 c 0,-1.04 -1.04,-1.779 -2.6,-2.1 -16.3083,-3.375298 -32.81665,-5.699087 -49.423,-6.957 -1.04,-0.075 -2.081,0.376 -2.081,1.416 v 74.166 c 4.162,0.27467 8.324,0.62667 12.486,1.056 V 98 c 0,-1.3 2.081,-1.605 3.642,-1.427 2.081,0.235 3.641,0.951 3.641,2.251 v 73.325 c 0,3.921 -1.04,6.059 -8.844,6.04 v 88.866 0 z m 103,-73.132 c 0,3.909 -1.561,5.721 -8.844,4.268 v 88.866 c 0.17077,1.0937 0.99847,1.96874 2.081,2.2 3.81467,1.17467 7.62967,2.38 11.445,3.616 30.174,9.949 40.058,7.463 40.058,-7.47 v -97.449 c 0,-5.716 -3.641,-12.259 -10.924,-17.451 7.283,0.252 10.924,-3.866 10.924,-9.851 v -53.624 c 0,-14.71 -9.884,-25.225 -40.058,-35.174 -3.81533,-1.238 -7.62967,-2.443333 -11.443,-3.616 -1.04,-0.32 -2.081,-0.117 -2.081,0.923 v 46.864 c 7.283,3.013 8.844,5.881 8.844,9.773 v 68.125 0 z m 13.526,-62.412 c 0,-4.673 1.041,-7.213 8.844,-4.537 6.243,2.153 9.885,6.316 9.885,10.993 v 19.761 c 0,4.685 -4.682,6.646 -12.486,3.976 -2.08067,-0.71067 -4.16167,-1.41433 -6.243,-2.111 z m 0,35.883 c 2.08133,0.696 4.16233,1.39967 6.243,2.111 7.8,2.67 12.486,7.99 12.486,12.665 v 21.582 c 0,4.685 -2.6,6.343 -9.885,3.828 -7.8,-2.676 -8.844,-5.6 -8.844,-10.284 v -29.899 0 z m 48.377,48.22 c 0,3.9 -1.56,5.648 -8.844,3.733 v 88.866 c 0.18195,1.11507 0.99349,2.02372 2.081,2.33 8.844,3.27733 17.688,6.60433 26.532,9.981 1.561,0.593 2.6,0.469 2.6,-0.571 V 231.09 c -7.284,-3.55 -8.844,-6.477 -8.844,-10.379 v -30.942 c 2.42733,0.92 4.855,1.84167 7.283,2.765 6.763,2.573 11.445,8 11.445,12.679 V 312.28 c 0,7.8 4.162,14.59 12.486,17.752 2.254,0.856 4.50833,1.71033 6.763,2.563 1.561,0.59 4.682,1.246 4.682,0.206 v -90.166 c -9.885,-4.247 -11.445,-7.192 -11.445,-11.089 v -20.281 c 0,-5.721 -3.642,-12.3 -9.365,-17.084 5.723,-0.159 9.365,-4.238 9.365,-10.218 v -53.625 c 0,-14.8 -9.885,-25.122 -40.058,-36.535 -3.816,-1.434 -7.63133,-2.858667 -11.446,-4.274 -1.04,-0.386 -2.081,-0.25 -2.081,0.79 v 46.864 c 7.284,3.475 8.844,6.411 8.844,10.308 v 68.125 0 z m 13.527,-61.73 c 0,-4.68 1.04,-7.15 8.844,-4.183 6.242,2.377 9.884,6.626 9.884,11.306 v 19.761 c 0,4.681 -4.682,6.535 -11.445,3.962 -2.428,-0.92333 -4.85567,-1.84467 -7.283,-2.764 z m 92.6,-4.83 c 0,-10.665 -9.364,-20.832 -22.37,-25.526 -13.006,-4.694 -22.37,-1.222 -22.37,9.448 v 185.653 c 0,10.652 9.364,21.217 22.37,25.914 13.006,4.697 22.37,0.821 22.37,-9.836 z m -31.214,30.081 c 0,-4.686 1.041,-9.226 8.844,-6.4 7.283,2.62 8.844,8.092 8.844,12.778 v 61.364 c 0,4.675 -1.561,9.083 -8.844,6.464 -7.8,-2.823 -8.844,-8.163 -8.844,-12.839 z m 50.459,178 c 0,1.04 1.561,2.053 3.121,2.538 8.67133,2.698 17.342,5.21933 26.012,7.564 1.561,0.419 2.6,0.173 2.6,-0.867 v -88.861 c -7.283,-2.719 -8.844,-5.537 -8.844,-9.426 V 194.76 c 0,-1.3 2.081,-1.236 4.162,-0.67 1.561,0.427 3.642,1.5 3.642,2.8 v 25.481 c 4.162,1.10733 8.32367,2.165 12.485,3.173 v -74.166 c 0,-1.04 -1.04,-1.81 -2.6,-2.195 -16.474,-4.07 -32.948,-8.948 -49.422,-14.339 -1.041,-0.34 -2.081,-0.164 -2.081,0.876 v 74.167 c 4.162,1.372 8.324,2.711 12.486,4.017 v -25.482 c 0,-1.3 2.08,-1.168 3.641,-0.688 2.081,0.641 3.642,1.632 3.642,2.932 v 73.325 c 0,3.89 -1.041,5.953 -8.844,4.286 v 88.866 0 z M 668.208,242.6 v -30.94 c 0,-2.08067 0.52033,-3.552 1.561,-4.414 1.561,-1.039 3.642,-1.468 7.283,-1.178 V 159.2 c 0,-1.041 -1.04,-1.715 -2.6,-1.96 -8.844,-1.388 -17.688,-3.062 -26.532,-5.022 -1.041,-0.229 -2.081,0.057 -2.081,1.1 v 46.864 c 7.283,2.4 8.844,5.007 8.844,8.92 v 68.125 c 0.0802,1.60249 -0.48159,3.17087 -1.561,4.358 -1.56,0.713 -3.641,1.058 -7.283,0.763 v 88.866 c 0.1574,1.06663 1.01028,1.89533 2.081,2.022 8.844,1.94467 17.688,3.619 26.532,5.023 1.561,0.245 2.6,-0.121 2.6,-1.161 v -88.864 c -7.283,-1.9 -8.844,-4.564 -8.844,-8.449 v -30.423 c 6.93667,1.2 13.87333,2.212 20.81,3.036 v 30.422 c 0.0633,1.6407 -0.49406,3.24498 -1.561,4.493 -1.561,0.847 -3.642,1.371 -7.283,1.377 v 88.865 c 0,1.04 1.04,1.71 2.6,1.921 8.67,1.17067 17.34067,2.02367 26.012,2.559 1.04,0.064 2.6,-0.374 2.6,-1.415 v -88.865 c -7.283,-1.186 -8.844,-3.718 -8.844,-7.6 V 216.03 c -0.14822,-1.67269 0.41895,-3.3299 1.561,-4.561 1.56,-1.187 3.641,-1.813 7.283,-1.88 v -46.864 c 0,-1.04 -1.561,-1.642 -2.6,-1.706 -8.67133,-0.52133 -17.342,-1.37433 -26.012,-2.559 -1.561,-0.211 -2.6,0.159 -2.6,1.2 v 46.864 c 7.283,1.791 8.844,4.255 8.844,8.171 v 30.942 c -6.93733,-0.818 -13.874,-1.82967 -20.81,-3.035 v 0 z m 51.5,-32.689 c 7.284,0.938 8.844,3.2 8.844,7.118 v 68.125 c 0,3.881 -1.56,6.3 -8.844,6.922 v 88.866 c 0.13285,1.01717 1.06337,1.73529 2.081,1.606 15.83812,0.33651 31.6761,-0.67749 47.342,-3.031 2.081,-0.319 2.6,-0.931 2.6,-1.97 V 262.162 c -4.162,0.67733 -8.324,1.252 -12.486,1.724 v 18.982 c 0,4.394 -1.04,6.949 -8.844,7.62 -7.283,0.552 -8.324,-2.077 -8.324,-6.735 v -29.382 c 3.98933,-0.2 7.978,-0.488 11.966,-0.864 v -6.761 c -3.98933,0.376 -7.978,0.664 -11.966,0.864 v -29.642 c 0,-4.7 1.041,-7.533 8.324,-8.086 7.8,-0.67 8.844,1.454 8.844,5.9 v 18.981 c 4.162,-0.474 8.324,-1.04867 12.486,-1.724 v -73.385 c 0,-1.042 -0.52,-1.47 -2.6,-1.151 -15.66584,2.35399 -31.50387,3.368 -47.342,3.031 -1.04,-0.019 -2.081,0.474 -2.081,1.514 v 46.865 0 z m 69.192,68.357 c 0,3.875 -1.561,6.674 -8.844,8.921 v 88.866 c 0,1.04 1.04,1.356 2.081,1.142 8.96271,-1.83757 17.81961,-4.15795 26.532,-6.951 1.56,-0.5 2.6,-1.37 2.6,-2.41 v -88.865 c -7.284,1.6 -8.844,-0.385 -8.844,-4.258 v -30.942 c 2.428,-0.71 4.85567,-1.46 7.283,-2.25 6.763,-2.2 11.445,-0.4 11.445,4.3 v 107.062 c 0,7.772 4.162,11.524 12.486,7.9 2.254,-0.98933 4.50833,-2.016 6.763,-3.08 1.561,-0.729 4.682,-2.781 4.682,-3.827 v -90.164 c -9.884,4.3 -11.445,2.431 -11.445,-1.414 v -20.281 c 0,-5.73 -3.642,-9.283 -9.364,-9.626 5.722,-4.6 9.364,-11.7 9.364,-17.676 V 161.09 c 0,-15.243 -9.885,-15.7 -40.058,-7.532 -3.81533,0.96733 -7.63033,1.84167 -11.445,2.623 -1.06559,0.10322 -1.92386,0.91902 -2.081,1.978 v 46.865 c 7.283,-0.687 8.844,1.194 8.844,5.119 v 68.125 0 z m 13.526,-70.38 c 0,-4.712 1.04,-7.759 8.844,-10.3 6.243,-2.085 9.884,-0.665 9.884,4.028 v 19.761 c 0,4.67 -4.682,10.144 -11.445,12.347 -2.428,0.79 -4.85567,1.53967 -7.283,2.249 z m 47.86,144.9 c 3.122,-1.63133 6.24333,-3.33867 9.364,-5.122 0.32443,-1.50699 1.26813,-2.80785 2.6,-3.584 1.50118,-0.80333 3.06739,-1.47872 4.682,-2.019 2.081,-0.234 4.162,-1.265 7.283,-3.291 15.607,-10.348 19.769,-27.1 19.769,-39.692 V 246.619 C 893.99,217 884.626,208 876.3,200.96 c -6.763,-6.184 -11.965,-16.926 -11.965,-21.337 0,-3.654 2.081,-7.7 7.283,-10.988 6.243,-4.007 7.283,-1.942 7.283,2.763 v 18.981 c 4.33333,-2.93333 8.66867,-6.02367 13.006,-9.271 v -75.727 c -3.12133,2.342 -6.24267,4.59967 -9.364,6.773 -0.33918,1.57612 -1.2697,2.96223 -2.6,3.873 -1.47816,0.93848 -3.04666,1.72642 -4.682,2.352 -2.081,0.321 -4.162,1.405 -7.284,3.332 -13.526,8.192 -17.688,22.96 -17.688,35.8 v 10.461 c 0,20.259 4.682,32.483 12.486,40.653 9.364,10.6 15.607,18.737 15.607,28.644 0,4.647 -1.041,8.332 -8.324,12.953 -5.722,3.564 -7.283,1.547 -7.283,-3.115 v -18.976 c -4.162,2.448 -8.324,4.75833 -12.486,6.931 V 352.79 Z M 106,348.817 C 366.124,150.573 626.248,541.3 886.371,354.463 v 28 C 626.248,569.3 366.124,178.574 106,376.818 v -28 z"
     style="display:inline;fill:#ff6a00;fill-opacity:1;stroke:#990d00;stroke-width:1;stroke-linecap:square;stroke-linejoin:miter;stroke-dasharray:none;stroke-opacity:1" /><path
     d="m 556.8,96.912 c -3.3614,-5.116286 -7.13102,-9.952379 -11.272,-14.461 2.08816,-2.303373 3.90042,-4.842543 5.4,-7.566 0.54,0.016 0.684,-0.112 0.684,-0.255 0,-0.538 -3.889,-5.123 -4.285,-5.27 -0.288,-0.105 -0.468,0.225 -0.756,0.119 -6.23067,-2.246667 -12.461,-4.526333 -18.691,-6.839 v 6.227 c 5.01333,1.763333 10.02,3.507667 15.02,5.233 -2.917,4.466 -8.859,10.161 -20.419,9.5 0,0 4.358,4.417 5.546,6.591 0.094,0.182141 0.24602,0.327798 0.432,0.414 0.432,0.162 6.951,0.023 13.253,-4.669 3.37596,4.067713 6.38757,8.424504 9,13.02 0.048,0.10992 0.13917,0.19526 0.252,0.236 0.0834,0.0234 0.17224,0.0177 0.252,-0.016 1.866,-0.749333 3.72733,-1.504 5.584,-2.264 z m 33.5,15.294 V 85.5 C 580.98467,82.485333 571.66933,79.318667 562.354,76 v 26.779 c 2.12533,0.75267 4.25033,1.499 6.375,2.239 v -2.123 c 5.01733,1.74733 10.035,3.45467 15.053,5.122 v 2.052 c 2.17333,0.72133 4.346,1.43367 6.518,2.137 z m -6.518,-10.272 c -5.018,-1.66667 -10.03567,-3.374333 -15.053,-5.123 V 84.248 c 5.01733,1.747333 10.035,3.455 15.053,5.123 z m 28.707,3.211 c -0.77421,-3.24665 -1.94606,-6.385362 -3.489,-9.345 -1.65733,0.03667 -3.314,0.06667 -4.97,0.09 1.46498,2.847116 2.53131,5.88223 3.169,9.02 -5.4e-4,0.18966 0.0941,0.36693 0.252,0.472 0.0949,0.0181 0.19182,0.0228 0.288,0.014 1.58533,-0.0793 3.17,-0.164 4.754,-0.254 v 0 z m 8.247,-3.523 c 0.5,-0.04 0.864,-0.193 0.864,-0.445 -0.0955,-0.30225 -0.34067,-0.53347 -0.648,-0.611 -1.3,-0.676 -5.978,-2.8 -5.978,-2.8 -0.793,10.772 -5.294,15.518 -16.17,15.094 0.5,0.448 4.141,3.624 5.222,5.533 0.0946,0.16644 0.24908,0.29054 0.432,0.347 0.0685,0.0275 0.14263,0.0378 0.216,0.03 8.933,-1.258 14.119,-5.491 16.064,-17.148 z m -15.162,2.984 c -0.95454,-3.23273 -2.29768,-6.33774 -4,-9.247 -1.60867,0.164667 -3.21733,0.323667 -4.826,0.477 1.60858,2.7181 2.83288,5.64593 3.638,8.7 0.008,0.21357 0.13226,0.40561 0.324,0.5 0.0947,0.0198 0.19169,0.0255 0.288,0.017 1.524,-0.14067 3.04833,-0.28667 4.573,-0.438 v 0 z m 30.362,22.474 v -17.135 c 3.59591,2.37235 6.98166,5.04883 10.12,8 0.0812,0.0795 0.17984,0.13905 0.288,0.174 0.0859,0.0408 0.18801,-0.004 0.216,-0.095 1.42933,-1.61867 2.858,-3.24467 4.286,-4.878 -4.74384,-3.62585 -9.72496,-6.93023 -14.91,-9.891 V 98.57 c 10e-4,-0.913893 0.0494,-1.827117 0.145,-2.736 0.648,-0.091 0.936,-0.272 0.936,-0.488 0,-0.446 -0.072,-0.45 -8.031,-2.873 0.18,1.847 0.252,5.466 0.252,5.466 v 27.43 c 2.23267,0.584 4.466,1.15433 6.7,1.711 v 0 z m 77.327,-17.408 c -0.75564,-1.83126 -1.81521,-3.52172 -3.134,-5 -1.08,0.14933 -2.16033,0.293 -3.241,0.431 1.27826,1.56866 2.24402,3.36778 2.845,5.3 1.17733,-0.238 2.354,-0.482 3.53,-0.732 v 0 z m -11.236,4.582 c -2.55361,8.9745 -10.4621,15.38298 -19.771,16.021 0,0.009 4.969,3.423 6.626,5.884 0.0673,0.15022 0.20012,0.26094 0.36,0.3 0.5,0.148 15.558,-2.77 20.779,-24.126 0.38186,-0.006 0.72284,-0.24054 0.865,-0.595 0,-0.221 -0.072,-0.389 -3.6,-3.043 -0.6558,-1.41317 -1.47759,-2.74321 -2.448,-3.962 -1.12933,0.092 -2.258,0.17833 -3.386,0.259 0.72393,0.96585 1.33993,2.00806 1.837,3.108 -7.178,-0.56867 -14.35667,-1.359 -21.536,-2.371 v 6.3 c 6.75867,0.93333 13.51733,1.67633 20.276,2.229 v 0 z m 40.987,-1.01 v -5.615 c -7.45467,0.348 -14.90933,0.40933 -22.364,0.184 v 5.616 c 7.45467,0.216 14.90933,0.15433 22.364,-0.185 z m -4.61,8.817 c -1.98,4.947 -6.806,10.656 -19.3,10.757 0,0.01 4.609,3.556 5.726,5.937 0.047,0.19902 0.22761,0.33742 0.432,0.331 1.4,0.141 16.854,-2.447 20.743,-19.662 0.37179,-0.12861 0.6723,-0.40772 0.828,-0.769 0,-0.455 -4.825,-2.724 -5.15,-2.724 -0.325,0 -0.5,0.273 -0.756,0.283 -7.766,0.31733 -15.53267,0.32667 -23.3,0.028 v 5.94 c 6.926,0.19467 13.85233,0.15433 20.779,-0.121 v 0 z m 47.758,-16.745 c -0.73947,-1.3762 -1.81824,-2.54068 -3.134,-3.383 -0.84,0.61267 -1.68,1.22067 -2.52,1.824 1.3258,0.89399 2.36403,2.15314 2.989,3.625 0.888,-0.684 1.77633,-1.37267 2.665,-2.066 z m -1.045,10.119 v -5.8 c -2.52133,0.52667 -5.042,1.01467 -7.562,1.464 0,-1.26 0.036,-2.562 0.036,-3.714 v -0.216 c 0.82209,0.93189 1.49046,1.98881 1.98,3.131 0.93667,-0.63133 1.873,-1.26733 2.809,-1.908 -0.71624,-1.47987 -1.82263,-2.7363 -3.2,-3.634 -0.516,0.35867 -1.032,0.71633 -1.548,1.073 0.036,-0.4 0.036,-0.835 0.072,-1.165 0.48859,-0.0849 0.91228,-0.38688 1.152,-0.821 0,-0.378 -1.152,-0.422 -7.491,0.577 0.072,0.781 0.144,2.1 0.144,2.857 0,1.836 0.036,3.558 0.036,4.818 -2.1,0.324 -4.2,0.62133 -6.3,0.892 v -4.067 c 0,0 0.036,-1.3 0.144,-2.035 0.44596,-0.0201 0.85203,-0.26278 1.081,-0.646 0,-0.18 -0.216,-0.3 -0.757,-0.3 -1.872,0 -5.906,0.321 -6.626,0.388 0.0926,0.86797 0.14069,1.74011 0.144,2.613 v 4.758 c -2.67733,0.284 -5.35433,0.528 -8.031,0.732 v 5.8 c 2.67667,-0.204 5.35367,-0.44767 8.031,-0.731 v 8.423 c 2.00533,-0.21333 4.01,-0.44933 6.014,-0.708 v -8.426 c 2.12533,-0.27533 4.25,-0.57533 6.374,-0.9 -0.252,7.945 -2.881,12.065 -13.648,15.312 0,0.01 4.465,2.192 6.014,3.929 0.0827,0.11496 0.21862,0.1795 0.36,0.171 0.036,0 0.108,-0.05 0.144,-0.054 10.119,-4.862 13.109,-11.611 13.181,-20.365 2.484,-0.44333 4.96867,-0.925 7.454,-1.445 v 0 z m 33.605,-4.4 v -6.479 c -9.31294,3.3324 -18.81243,6.11847 -28.45,8.344 v 6.48 c 9.63759,-2.22587 19.13707,-5.01227 28.45,-8.345 z m 35.621,-32.98 c -0.469,-0.9 -2.485,-2 -3.314,-2.258 -1.056,0.893333 -2.11233,1.778 -3.169,2.654 1.28411,0.551211 2.36674,1.485416 3.1,2.675 1.12867,-1.014 2.25733,-2.037667 3.386,-3.071 v 0 z m -5.078,3.9 c -0.5,-1.181 -2.377,-2.26 -3.277,-2.685 -1.06667,0.848 -2.13533,1.687 -3.206,2.517 1.32155,0.68837 2.40266,1.762159 3.1,3.079 1.128,-0.960667 2.25633,-1.931 3.385,-2.911 v 0 z m 3.961,21.961 c -3.133,-2.228 -7.454,-3.655 -11.272,-4.748 2.0378,-3.940418 3.84094,-7.997824 5.4,-12.151 0.32475,-0.187271 0.56848,-0.488365 0.684,-0.845 0,-0.529 -3.889,-1.786 -4.285,-1.608 -0.288,0.138 -0.468,0.62 -0.756,0.757 -6.23067,3 -12.461,5.709667 -18.691,8.129 v 6.227 c 5.006,-2.042 10.01167,-4.265 15.017,-6.669 -4.2515,10.24994 -11.33404,19.07719 -20.419,25.449 0,0.012 4.358,1.184 5.546,2.439 0.11405,0.11216 0.28396,0.1456 0.432,0.085 0.432,-0.16 6.951,-5.274 13.253,-15.159 3.31012,1.24947 6.36122,3.09911 9,5.456 0.0666,0.0703 0.17564,0.0785 0.252,0.019 0.0979,-0.0616 0.18337,-0.14093 0.252,-0.234 1.86133,-2.35467 3.722,-4.737 5.582,-7.147 v 0 z"
     style="fill:#990d00;fill-opacity:1;fill-rule:evenodd"
     id="path90" /><path
     d="m 554.8,92.912 c -3.3614,-5.116286 -7.13102,-9.952379 -11.272,-14.461 2.08816,-2.303373 3.90042,-4.842543 5.4,-7.566 0.54,0.016 0.684,-0.112 0.684,-0.255 0,-0.538 -3.889,-5.123 -4.285,-5.27 -0.288,-0.105 -0.468,0.225 -0.756,0.119 -6.23067,-2.246667 -12.461,-4.526333 -18.691,-6.839 v 6.227 c 5.01333,1.763333 10.02,3.507667 15.02,5.233 -2.917,4.466 -8.859,10.161 -20.419,9.5 0,0 4.358,4.417 5.546,6.591 0.094,0.182141 0.24602,0.327798 0.432,0.414 0.432,0.162 6.951,0.023 13.253,-4.669 3.37596,4.067713 6.38757,8.424504 9,13.02 0.048,0.109921 0.13917,0.195257 0.252,0.236 0.0834,0.02339 0.17224,0.01774 0.252,-0.016 1.866,-0.749333 3.72733,-1.504 5.584,-2.264 z m 33.5,15.294 V 81.5 C 578.98467,78.485333 569.66933,75.318667 560.354,72 v 26.779 c 2.12533,0.752667 4.25033,1.499 6.375,2.239 v -2.123 c 5.01733,1.74733 10.035,3.45467 15.053,5.122 v 2.052 c 2.17333,0.72133 4.346,1.43367 6.518,2.137 z m -6.518,-10.272 c -5.018,-1.666667 -10.03567,-3.374333 -15.053,-5.123 V 80.248 c 5.01733,1.747333 10.035,3.455 15.053,5.123 z m 28.707,3.211 C 609.71479,97.898352 608.54294,94.759638 607,91.8 c -1.65733,0.03667 -3.314,0.06667 -4.97,0.09 1.46498,2.847116 2.53131,5.882235 3.169,9.02 -5.4e-4,0.18966 0.0941,0.36693 0.252,0.472 0.0949,0.0181 0.19182,0.0228 0.288,0.014 1.58533,-0.0793 3.17,-0.164 4.754,-0.254 v 0 z m 8.247,-3.523 c 0.5,-0.04 0.864,-0.193 0.864,-0.445 -0.0955,-0.302247 -0.34067,-0.533468 -0.648,-0.611 -1.3,-0.676 -5.978,-2.8 -5.978,-2.8 -0.793,10.772 -5.294,15.518 -16.17,15.094 0.5,0.448 4.141,3.624 5.222,5.533 0.0946,0.16644 0.24908,0.29054 0.432,0.347 0.0685,0.0275 0.14263,0.0378 0.216,0.03 8.933,-1.258 14.119,-5.491 16.064,-17.148 z m -15.162,2.984 c -0.95454,-3.23273 -2.29768,-6.33774 -4,-9.247 -1.60867,0.164667 -3.21733,0.323667 -4.826,0.477 1.60858,2.7181 2.83288,5.645925 3.638,8.7 0.008,0.21357 0.13226,0.40561 0.324,0.5 0.0947,0.0198 0.19169,0.0255 0.288,0.017 1.524,-0.14067 3.04833,-0.28667 4.573,-0.438 v 0 z m 30.362,22.474 v -17.135 c 3.59591,2.37235 6.98166,5.04883 10.12,8 0.0812,0.0795 0.17984,0.13905 0.288,0.174 0.0859,0.0408 0.18801,-0.004 0.216,-0.095 1.42933,-1.61867 2.858,-3.24467 4.286,-4.878 -4.74384,-3.62585 -9.72496,-6.93023 -14.91,-9.891 V 94.57 c 10e-4,-0.913893 0.0494,-1.827117 0.145,-2.736 0.648,-0.091 0.936,-0.272 0.936,-0.488 0,-0.446 -0.072,-0.45 -8.031,-2.873 0.18,1.847 0.252,5.466 0.252,5.466 v 27.43 c 2.23267,0.584 4.466,1.15433 6.7,1.711 v 0 z m 77.327,-17.408 c -0.75564,-1.83126 -1.81521,-3.52172 -3.134,-5 -1.08,0.14933 -2.16033,0.293 -3.241,0.431 1.27826,1.56866 2.24402,3.36778 2.845,5.3 1.17733,-0.238 2.354,-0.482 3.53,-0.732 v 0 z m -11.236,4.582 c -2.55361,8.9745 -10.4621,15.38298 -19.771,16.021 0,0.009 4.969,3.423 6.626,5.884 0.0673,0.15022 0.20012,0.26094 0.36,0.3 0.5,0.148 15.558,-2.77 20.779,-24.126 0.38186,-0.006 0.72284,-0.24054 0.865,-0.595 0,-0.221 -0.072,-0.389 -3.6,-3.043 -0.6558,-1.41317 -1.47759,-2.74321 -2.448,-3.962 -1.12933,0.092 -2.258,0.17833 -3.386,0.259 0.72393,0.96585 1.33993,2.00806 1.837,3.108 -7.178,-0.56867 -14.35667,-1.359 -21.536,-2.371 v 6.3 c 6.75867,0.93333 13.51733,1.67633 20.276,2.229 v 0 z m 40.987,-1.01 v -5.615 c -7.45467,0.348 -14.90933,0.40933 -22.364,0.184 v 5.616 c 7.45467,0.216 14.90933,0.15433 22.364,-0.185 z m -4.61,8.817 c -1.98,4.947 -6.806,10.656 -19.3,10.757 0,0.01 4.609,3.556 5.726,5.937 0.047,0.19902 0.22761,0.33742 0.432,0.331 1.4,0.141 16.854,-2.447 20.743,-19.662 0.37179,-0.12861 0.6723,-0.40772 0.828,-0.769 0,-0.455 -4.825,-2.724 -5.15,-2.724 -0.325,0 -0.5,0.273 -0.756,0.283 -7.766,0.31733 -15.53267,0.32667 -23.3,0.028 v 5.94 c 6.926,0.19467 13.85233,0.15433 20.779,-0.121 v 0 z m 47.758,-16.745 c -0.73947,-1.376199 -1.81824,-2.54068 -3.134,-3.383 -0.84,0.612667 -1.68,1.220667 -2.52,1.824 1.3258,0.89399 2.36403,2.15314 2.989,3.625 0.888,-0.684 1.77633,-1.37267 2.665,-2.066 z m -1.045,10.119 v -5.8 c -2.52133,0.52667 -5.042,1.01467 -7.562,1.464 0,-1.26 0.036,-2.562 0.036,-3.714 v -0.216 c 0.82209,0.93189 1.49046,1.98881 1.98,3.131 0.93667,-0.63133 1.873,-1.26733 2.809,-1.908 -0.71624,-1.47987 -1.82263,-2.7363 -3.2,-3.634 -0.516,0.35867 -1.032,0.71633 -1.548,1.073 0.036,-0.4 0.036,-0.835 0.072,-1.165 0.48859,-0.0849 0.91228,-0.38688 1.152,-0.821 0,-0.378 -1.152,-0.422 -7.491,0.577 0.072,0.781 0.144,2.1 0.144,2.857 0,1.836 0.036,3.558 0.036,4.818 -2.1,0.324 -4.2,0.62133 -6.3,0.892 v -4.067 c 0,0 0.036,-1.3 0.144,-2.035 0.44596,-0.0201 0.85203,-0.26278 1.081,-0.646 0,-0.18 -0.216,-0.3 -0.757,-0.3 -1.872,0 -5.906,0.321 -6.626,0.388 0.0926,0.86797 0.14069,1.74011 0.144,2.613 v 4.758 c -2.67733,0.284 -5.35433,0.528 -8.031,0.732 v 5.8 c 2.67667,-0.204 5.35367,-0.44767 8.031,-0.731 v 8.423 c 2.00533,-0.21333 4.01,-0.44933 6.014,-0.708 v -8.426 c 2.12533,-0.27533 4.25,-0.57533 6.374,-0.9 -0.252,7.945 -2.881,12.065 -13.648,15.312 0,0.01 4.465,2.192 6.014,3.929 0.0827,0.11496 0.21862,0.1795 0.36,0.171 0.036,0 0.108,-0.05 0.144,-0.054 10.119,-4.862 13.109,-11.611 13.181,-20.365 2.484,-0.44333 4.96867,-0.925 7.454,-1.445 v 0 z m 33.605,-4.4 v -6.479 c -9.31294,3.3324 -18.81243,6.11847 -28.45,8.344 v 6.48 c 9.63759,-2.22587 19.13707,-5.01227 28.45,-8.345 z m 35.621,-32.98 c -0.469,-0.9 -2.485,-2 -3.314,-2.258 -1.056,0.893333 -2.11233,1.778 -3.169,2.654 1.28411,0.551211 2.36674,1.485416 3.1,2.675 1.12867,-1.014 2.25733,-2.037667 3.386,-3.071 v 0 z m -5.078,3.9 c -0.5,-1.181 -2.377,-2.26 -3.277,-2.685 -1.06667,0.848 -2.13533,1.687 -3.206,2.517 1.32155,0.68837 2.40266,1.762159 3.1,3.079 1.128,-0.960667 2.25633,-1.931 3.385,-2.911 v 0 z m 3.961,21.961 c -3.133,-2.228 -7.454,-3.655 -11.272,-4.748 2.0378,-3.940418 3.84094,-7.997824 5.4,-12.151 0.32475,-0.187271 0.56848,-0.488365 0.684,-0.845 0,-0.529 -3.889,-1.786 -4.285,-1.608 -0.288,0.138 -0.468,0.62 -0.756,0.757 -6.23067,3 -12.461,5.709667 -18.691,8.129 v 6.227 c 5.006,-2.042 10.01167,-4.265 15.017,-6.669 -4.2515,10.249936 -11.33404,19.07719 -20.419,25.449 0,0.012 4.358,1.184 5.546,2.439 0.11405,0.11216 0.28396,0.1456 0.432,0.085 0.432,-0.16 6.951,-5.274 13.253,-15.159 3.31012,1.24947 6.36122,3.09911 9,5.456 0.0666,0.0703 0.17564,0.0785 0.252,0.019 0.0979,-0.0616 0.18337,-0.14093 0.252,-0.234 1.86133,-2.35467 3.722,-4.737 5.582,-7.147 v 0 z"
     style="fill:#ff6a00;fill-rule:evenodd;fill-opacity:1"
     id="path1" /></svg>
