<svg width="2e3" height="400" version="1.1" viewBox="0 0 2e3 400" xmlns="http://www.w3.org/2000/svg" xmlns:x="adobe:ns:meta/">
 <g>
  <path d="m1866 46.36c-6.328-.07675-13.15.0602-20.51.2109h-140.1v306.8h118.8v-14.41c.1751.487.2757 1.011.459 1.494l4.893 12.91h119.8l-8.162-25.99c-2.747-8.747-5.242-23.22-5.242-38.82v-41.2l-.01.5859c.5141-17.52-2.705-34.38-13.62-47.2-.9535-1.12-1.985-2.132-3.008-3.156 1.55-1.655 3.002-3.421 4.33-5.32 10.9-15.58 13.01-34.65 12.29-57.55l.01.6289v-17.68l-.022-.4785c-.5823-12.18-1.546-22.54-4.524-32.44-2.978-9.903-8.869-19.79-17.75-26.26-13.32-9.715-28.29-11.92-47.63-12.15zm-1115 .2012v190.8l.002-.2285c-.2277 19.87.5428 37.57 2.285 52.15s2.717 25.03 10.33 36.41l.0781.1172.082.1172c6.472 9.376 16.62 19.88 30.31 23.63 13.7 3.753 28.3 3.611 54.63 3.812h180.6v-306.8h-118.8v208.8h-25.86l-.2598.008c-7.755.2014-12.19-.4659-14.41-.7832-.2546-2.27-.4476-5.765-.2852-11.01l.01-.3086v-196.7zm280.9 0v307h254v-307h-113.8l-13.18 43.31-13.18-43.31zm-978.5.0098v306.8h118.8v-306.8zm219.4 0 .2324.002c-17.55-.2046-31.73.01323-44.59 2.328-12.86 2.315-25.37 7.481-34.31 17.33-17.88 19.7-18.09 45.6-19.21 85.38l-.008.2812v85.49l.002-.2285c-.2277 19.87.5428 37.57 2.285 52.15 1.742 14.58 2.717 25.03 10.33 36.41l.1602.2344c6.472 9.376 16.62 19.88 30.31 23.63 13.7 3.753 28.3 3.611 54.63 3.812h72.51v-98.01h-36.54l-.2598.008c-7.755.2014-12.19-.4659-14.41-.7832-.2546-2.27-.4476-5.765-.2852-11.01l.01-.3086v-86.62l-.01-.3066c-.1598-5.231.0278-8.714.2754-11.03 2.301-.318 6.807-.9613 14.42-.7637l.2598.006h34.34v-98zm170.9 0 .2324.002c-17.55-.2046-31.76.01478-44.64 2.326-12.88 2.311-25.41 7.448-34.39 17.29-17.96 19.69-18.18 45.71-19.08 85.53l-.006.2246v85.43l.002-.2246c-.2273 20.25.5408 37.96 2.287 52.46 1.746 14.51 2.864 24.93 10.33 36.09l.1602.2344c6.472 9.376 16.62 19.88 30.31 23.63s28.3 3.611 54.63 3.812h93.63v-98.01h-72.6v-6.4h72.6v-98h-72.6v-6.41h72.6v-98zm232.5 0 .2344.002c-17.55-.2046-31.73.01323-44.59 2.328-12.86 2.315-25.37 7.481-34.31 17.33-17.88 19.7-18.09 45.6-19.21 85.38l-.008.2812v85.26c-.2277 19.87.5428 37.57 2.285 52.15 1.742 14.58 2.719 25.03 10.34 36.41l.0781.1172.0801.1172c6.472 9.376 16.62 19.88 30.32 23.63s28.3 3.611 54.63 3.812h72.51v-98.01h-36.54l-.2598.008c-7.752.2014-12.19-.4657-14.4-.7832-.2546-2.27-.4476-5.765-.2852-11.01l.01-.3086v-86.62l-.01-.3066c-.1598-5.231.0258-8.714.2734-11.03 2.301-.318 6.807-.9613 14.42-.7637l.2598.006h34.34v-98zm612.5 0v306.8h156l-.5449-.008c11.7.3191 21.39.1428 30.83-2.014 9.444-2.156 19.33-7.416 25.57-15.68 12.48-16.52 11.36-34.13 12.25-59.2l.014-.3555v-2.209c.3608 5.385.6594 10.97 1.229 15.7 1.746 14.51 2.864 24.93 10.33 36.09l.16.2344c6.472 9.376 16.62 19.88 30.31 23.63s28.3 3.611 54.63 3.812h93.63v-98.01h-72.6v-6.4h72.6v-98h-72.6v-6.41h72.6v-98h-93.48l.2325.002c-17.55-.2046-31.76.01478-44.64 2.326-12.88 2.311-25.41 7.448-34.39 17.29-12.89 14.13-16.6 31.63-18.02 55.04v-.2618c-.4584-22.92-1.045-41.84-14.97-57.12-13.93-15.28-34.1-17.49-59.03-17.28l.1719-.002zm223 124.8v66.04-.2246c-.01.8257.039 1.497.033 2.314-1.129-12.23-3.816-23.34-12.04-33.23-.8508-1.023-1.792-1.886-2.695-2.814 1.843-1.803 3.542-3.761 5.031-5.893 5.751-8.229 8.408-16.77 9.666-26.2z" style="color:#000000;fill-rule:evenodd;fill:#000000;paint-order:stroke fill markers"/>
  <path d="m1873 196.6c33 8 44 20.8 43.12 50.8v41.2c0 17.6 2.64 33.6 6.16 44.81h-78.76c-4.4-11.61-6.16-26.01-6.16-44.81v-35.6c.44-16.8-6.16-23.6-22.88-24h-10.12v104.4h-78.76v-266.8h120.1c58.52-1.2 68.2 5.6 70.4 51.6v17.2c1.32 42.01-10.12 58.81-43.12 61.21zm-57.64-72.01h-11v46.41h11c18.48 0 22.44-4 22.44-22.81 0-17.6-5.72-23.6-22.44-23.6zm-273.8 190c-6.16-9.2-9.68-38-9.24-77.2v-85.21c1.76-78.4 9.24-86.4 77.88-85.6h73.48v58h-72.6v46.41h72.6v58h-72.6v46.4h72.6v58.01h-73.48c-52.36-.4-56.76-1.6-68.64-18.81zm-96.3 18.81h-136v-266.8h130.2c46.64-.4 52.96 10.8 53.84 54.8v14.4c0 51.21-1.92 60.81-51.2 66.41 46.64 8.4 50.32 17.6 51.2 56.8v16.8c-1.76 49.6-4.12 58.81-48.12 57.61zm-43.12-208h-14.08v46.01h14.52c12.76 0 18.92-7.2 18.92-20.81 0-18.4-5.28-25.2-19.36-25.2zm-2.64 104.4h-11.44v46h11.44c15.4 0 22-6.8 22-21.6 0-18.4-5.28-24.4-22-24.4zm-211.9 13.65-28 90.04-28-90.04v90.13h-79v-267h79l28 92 28-92h79v267h-79zm-256.4-176.9h78.76v266.8h-78.76zm-150.3 248c-6.16-9.2-9.68-38.8-9.24-77.2v-170.8h78.76v176.4c-.88 28.4 4.4 33.2 35.2 32.4h16.28v58.01h-52.36c-52.36-.4-56.76-1.6-68.64-18.81zm-172.7 0c-6.16-9.2-9.68-38.8-9.24-77.2v-85.21c2.2-78.4 9.24-86.4 77.88-85.6h50.16v58h-14.08c-30.8-.8-36.08 3.6-35.2 32.4v86.01c-.88 28.4 4.4 33.2 35.2 32.4h16.28v58.01h-52.36c-52.36-.4-56.76-1.6-68.64-18.81zm-232.5 0c-6.16-9.2-9.68-38-9.24-77.2v-85.21c1.76-78.4 9.24-86.4 77.88-85.6h73.48v58h-72.6v46.41h72.6v58h-72.6v46.4h72.6v58.01h-73.48c-52.36-.4-56.76-1.6-68.64-18.81zm-170.9 0c-6.16-9.2-9.68-38.8-9.24-77.2v-85.21c2.2-78.4 9.24-86.4 77.88-85.6h50.16v58h-14.08c-30.8-.8-36.08 3.6-35.2 32.4v86.01c-.88 28.4 4.4 33.2 35.2 32.4h16.28v58.01h-52.36c-52.36-.4-56.76-1.6-68.64-18.81zm-130.8-248h78.76v266.8h-78.76z" style="color:#000000;fill-rule:evenodd;fill:#ffffff;paint-order:stroke fill markers"/>
 </g>
</svg>
